M48
; DRILL file {KiCad 8.0.2} date 2024-05-09T13:49:50-0500
; FORMAT={-:-/ absolute / inch / decimal}
; #@! TF.CreationDate,2024-05-09T13:49:50-05:00
; #@! TF.GenerationSoftware,Kicad,Pcbnew,8.0.2
; #@! TF.FileFunction,Plated,1,2,PTH
FMAT,2
INCH
; #@! TA.AperFunction,Plated,PTH,ViaDrill
T1C0.0118
; #@! TA.AperFunction,Plated,PTH,ComponentDrill
T2C0.0315
; #@! TA.AperFunction,Plated,PTH,ComponentDrill
T3C0.0394
; #@! TA.AperFunction,Plated,PTH,ComponentDrill
T4C0.0469
; #@! TA.AperFunction,Plated,PTH,ComponentDrill
T5C0.0630
%
G90
G05
T1
X3.5Y-2.85
X3.5Y-4.3
X3.55Y-3.85
X3.55Y-4.25
X3.6Y-3.75
X3.6Y-4.35
X3.65Y-2.65
X3.65Y-3.3
X3.65Y-3.65
X3.65Y-4.15
X3.7Y-2.7
X3.7Y-4.45
X3.75Y-2.75
X3.75Y-4.4
X4.15Y-4.35
X4.25Y-2.6
X4.25Y-3.15
X4.3Y-2.65
X4.3Y-3.05
X4.35Y-2.95
X4.4Y-2.85
X4.4Y-4.35
X4.45Y-2.7369
X4.45Y-4.4
X4.5Y-2.1924
X4.5Y-3.2
X4.5Y-3.65
X4.8Y-4.15
T2
X3.25Y-4.1543
X3.25Y-4.3465
X3.6016Y-4.6
X3.7Y-4.6
X3.8504Y-2.8504
X3.8504Y-2.9504
X3.8504Y-3.0504
X3.8504Y-3.1504
X3.8504Y-3.2504
X3.8504Y-3.3504
X3.8504Y-3.4504
X3.8504Y-3.5504
X3.8504Y-3.6504
X3.8504Y-3.7504
X3.8504Y-3.8504
X3.8504Y-3.9504
X3.8504Y-4.0504
X3.8504Y-4.1504
X4.1504Y-2.8504
X4.1504Y-2.9504
X4.1504Y-3.0504
X4.1504Y-3.1504
X4.1504Y-3.2504
X4.1504Y-3.3504
X4.1504Y-3.4504
X4.1504Y-3.5504
X4.1504Y-3.6504
X4.1504Y-3.7504
X4.1504Y-3.8504
X4.1504Y-3.9504
X4.1504Y-4.0504
X4.1504Y-4.1504
T3
X2.875Y-2.4
X2.875Y-2.5
X2.875Y-2.6
X2.875Y-2.7
X2.875Y-3.4
X2.875Y-3.5
X2.875Y-3.6
X2.875Y-3.7
X3.9Y-2.0
X3.9Y-2.1
X4.0Y-2.0
X4.0Y-2.1
X4.1Y-2.0
X4.1Y-2.1
X5.125Y-2.4
X5.125Y-2.5
X5.125Y-2.6
X5.125Y-2.7
X5.125Y-3.35
X5.125Y-3.45
X5.125Y-3.55
X5.125Y-3.65
T4
X3.6Y-5.0
X3.7Y-5.0
X4.225Y-5.0
X4.325Y-5.0
X4.425Y-5.0
X4.525Y-5.0
T5
X5.0Y-3.9524
X5.0Y-4.1512
X5.0Y-4.35
M30
