%TF.GenerationSoftware,KiCad,Pcbnew,8.0.2*%
%TF.CreationDate,2024-05-09T13:50:34-05:00*%
%TF.ProjectId,multifan-i2c-controller,6d756c74-6966-4616-9e2d-6932632d636f,A*%
%TF.SameCoordinates,Original*%
%TF.FileFunction,Legend,Bot*%
%TF.FilePolarity,Positive*%
%FSLAX46Y46*%
G04 Gerber Fmt 4.6, Leading zero omitted, Abs format (unit mm)*
G04 Created by KiCad (PCBNEW 8.0.2) date 2024-05-09 13:50:34*
%MOMM*%
%LPD*%
G01*
G04 APERTURE LIST*
%ADD10C,0.100000*%
%ADD11C,0.010000*%
%TA.AperFunction,Profile*%
%ADD12C,0.050000*%
%TD*%
G04 APERTURE END LIST*
D10*
X81507580Y-85041428D02*
X82507580Y-85041428D01*
X81507580Y-84612857D02*
X82031390Y-84612857D01*
X82031390Y-84612857D02*
X82126628Y-84660476D01*
X82126628Y-84660476D02*
X82174247Y-84755714D01*
X82174247Y-84755714D02*
X82174247Y-84898571D01*
X82174247Y-84898571D02*
X82126628Y-84993809D01*
X82126628Y-84993809D02*
X82079009Y-85041428D01*
X82174247Y-84279523D02*
X82174247Y-83898571D01*
X82507580Y-84136666D02*
X81650438Y-84136666D01*
X81650438Y-84136666D02*
X81555200Y-84089047D01*
X81555200Y-84089047D02*
X81507580Y-83993809D01*
X81507580Y-83993809D02*
X81507580Y-83898571D01*
X82174247Y-83708094D02*
X82174247Y-83327142D01*
X82507580Y-83565237D02*
X81650438Y-83565237D01*
X81650438Y-83565237D02*
X81555200Y-83517618D01*
X81555200Y-83517618D02*
X81507580Y-83422380D01*
X81507580Y-83422380D02*
X81507580Y-83327142D01*
X82174247Y-82993808D02*
X81174247Y-82993808D01*
X82126628Y-82993808D02*
X82174247Y-82898570D01*
X82174247Y-82898570D02*
X82174247Y-82708094D01*
X82174247Y-82708094D02*
X82126628Y-82612856D01*
X82126628Y-82612856D02*
X82079009Y-82565237D01*
X82079009Y-82565237D02*
X81983771Y-82517618D01*
X81983771Y-82517618D02*
X81698057Y-82517618D01*
X81698057Y-82517618D02*
X81602819Y-82565237D01*
X81602819Y-82565237D02*
X81555200Y-82612856D01*
X81555200Y-82612856D02*
X81507580Y-82708094D01*
X81507580Y-82708094D02*
X81507580Y-82898570D01*
X81507580Y-82898570D02*
X81555200Y-82993808D01*
X81555200Y-82136665D02*
X81507580Y-82041427D01*
X81507580Y-82041427D02*
X81507580Y-81850951D01*
X81507580Y-81850951D02*
X81555200Y-81755713D01*
X81555200Y-81755713D02*
X81650438Y-81708094D01*
X81650438Y-81708094D02*
X81698057Y-81708094D01*
X81698057Y-81708094D02*
X81793295Y-81755713D01*
X81793295Y-81755713D02*
X81840914Y-81850951D01*
X81840914Y-81850951D02*
X81840914Y-81993808D01*
X81840914Y-81993808D02*
X81888533Y-82089046D01*
X81888533Y-82089046D02*
X81983771Y-82136665D01*
X81983771Y-82136665D02*
X82031390Y-82136665D01*
X82031390Y-82136665D02*
X82126628Y-82089046D01*
X82126628Y-82089046D02*
X82174247Y-81993808D01*
X82174247Y-81993808D02*
X82174247Y-81850951D01*
X82174247Y-81850951D02*
X82126628Y-81755713D01*
X81602819Y-81279522D02*
X81555200Y-81231903D01*
X81555200Y-81231903D02*
X81507580Y-81279522D01*
X81507580Y-81279522D02*
X81555200Y-81327141D01*
X81555200Y-81327141D02*
X81602819Y-81279522D01*
X81602819Y-81279522D02*
X81507580Y-81279522D01*
X82126628Y-81279522D02*
X82079009Y-81231903D01*
X82079009Y-81231903D02*
X82031390Y-81279522D01*
X82031390Y-81279522D02*
X82079009Y-81327141D01*
X82079009Y-81327141D02*
X82126628Y-81279522D01*
X82126628Y-81279522D02*
X82031390Y-81279522D01*
X82555200Y-80089047D02*
X81269485Y-80946189D01*
X82555200Y-79041428D02*
X81269485Y-79898570D01*
X82174247Y-78279523D02*
X81364723Y-78279523D01*
X81364723Y-78279523D02*
X81269485Y-78327142D01*
X81269485Y-78327142D02*
X81221866Y-78374761D01*
X81221866Y-78374761D02*
X81174247Y-78469999D01*
X81174247Y-78469999D02*
X81174247Y-78612856D01*
X81174247Y-78612856D02*
X81221866Y-78708094D01*
X81555200Y-78279523D02*
X81507580Y-78374761D01*
X81507580Y-78374761D02*
X81507580Y-78565237D01*
X81507580Y-78565237D02*
X81555200Y-78660475D01*
X81555200Y-78660475D02*
X81602819Y-78708094D01*
X81602819Y-78708094D02*
X81698057Y-78755713D01*
X81698057Y-78755713D02*
X81983771Y-78755713D01*
X81983771Y-78755713D02*
X82079009Y-78708094D01*
X82079009Y-78708094D02*
X82126628Y-78660475D01*
X82126628Y-78660475D02*
X82174247Y-78565237D01*
X82174247Y-78565237D02*
X82174247Y-78374761D01*
X82174247Y-78374761D02*
X82126628Y-78279523D01*
X81507580Y-77803332D02*
X82174247Y-77803332D01*
X82507580Y-77803332D02*
X82459961Y-77850951D01*
X82459961Y-77850951D02*
X82412342Y-77803332D01*
X82412342Y-77803332D02*
X82459961Y-77755713D01*
X82459961Y-77755713D02*
X82507580Y-77803332D01*
X82507580Y-77803332D02*
X82412342Y-77803332D01*
X82174247Y-77469999D02*
X82174247Y-77089047D01*
X82507580Y-77327142D02*
X81650438Y-77327142D01*
X81650438Y-77327142D02*
X81555200Y-77279523D01*
X81555200Y-77279523D02*
X81507580Y-77184285D01*
X81507580Y-77184285D02*
X81507580Y-77089047D01*
X81507580Y-76755713D02*
X82507580Y-76755713D01*
X81507580Y-76327142D02*
X82031390Y-76327142D01*
X82031390Y-76327142D02*
X82126628Y-76374761D01*
X82126628Y-76374761D02*
X82174247Y-76469999D01*
X82174247Y-76469999D02*
X82174247Y-76612856D01*
X82174247Y-76612856D02*
X82126628Y-76708094D01*
X82126628Y-76708094D02*
X82079009Y-76755713D01*
X82174247Y-75422380D02*
X81507580Y-75422380D01*
X82174247Y-75850951D02*
X81650438Y-75850951D01*
X81650438Y-75850951D02*
X81555200Y-75803332D01*
X81555200Y-75803332D02*
X81507580Y-75708094D01*
X81507580Y-75708094D02*
X81507580Y-75565237D01*
X81507580Y-75565237D02*
X81555200Y-75469999D01*
X81555200Y-75469999D02*
X81602819Y-75422380D01*
X81507580Y-74946189D02*
X82507580Y-74946189D01*
X82126628Y-74946189D02*
X82174247Y-74850951D01*
X82174247Y-74850951D02*
X82174247Y-74660475D01*
X82174247Y-74660475D02*
X82126628Y-74565237D01*
X82126628Y-74565237D02*
X82079009Y-74517618D01*
X82079009Y-74517618D02*
X81983771Y-74469999D01*
X81983771Y-74469999D02*
X81698057Y-74469999D01*
X81698057Y-74469999D02*
X81602819Y-74517618D01*
X81602819Y-74517618D02*
X81555200Y-74565237D01*
X81555200Y-74565237D02*
X81507580Y-74660475D01*
X81507580Y-74660475D02*
X81507580Y-74850951D01*
X81507580Y-74850951D02*
X81555200Y-74946189D01*
X81602819Y-74041427D02*
X81555200Y-73993808D01*
X81555200Y-73993808D02*
X81507580Y-74041427D01*
X81507580Y-74041427D02*
X81555200Y-74089046D01*
X81555200Y-74089046D02*
X81602819Y-74041427D01*
X81602819Y-74041427D02*
X81507580Y-74041427D01*
X81555200Y-73136666D02*
X81507580Y-73231904D01*
X81507580Y-73231904D02*
X81507580Y-73422380D01*
X81507580Y-73422380D02*
X81555200Y-73517618D01*
X81555200Y-73517618D02*
X81602819Y-73565237D01*
X81602819Y-73565237D02*
X81698057Y-73612856D01*
X81698057Y-73612856D02*
X81983771Y-73612856D01*
X81983771Y-73612856D02*
X82079009Y-73565237D01*
X82079009Y-73565237D02*
X82126628Y-73517618D01*
X82126628Y-73517618D02*
X82174247Y-73422380D01*
X82174247Y-73422380D02*
X82174247Y-73231904D01*
X82174247Y-73231904D02*
X82126628Y-73136666D01*
X81507580Y-72565237D02*
X81555200Y-72660475D01*
X81555200Y-72660475D02*
X81602819Y-72708094D01*
X81602819Y-72708094D02*
X81698057Y-72755713D01*
X81698057Y-72755713D02*
X81983771Y-72755713D01*
X81983771Y-72755713D02*
X82079009Y-72708094D01*
X82079009Y-72708094D02*
X82126628Y-72660475D01*
X82126628Y-72660475D02*
X82174247Y-72565237D01*
X82174247Y-72565237D02*
X82174247Y-72422380D01*
X82174247Y-72422380D02*
X82126628Y-72327142D01*
X82126628Y-72327142D02*
X82079009Y-72279523D01*
X82079009Y-72279523D02*
X81983771Y-72231904D01*
X81983771Y-72231904D02*
X81698057Y-72231904D01*
X81698057Y-72231904D02*
X81602819Y-72279523D01*
X81602819Y-72279523D02*
X81555200Y-72327142D01*
X81555200Y-72327142D02*
X81507580Y-72422380D01*
X81507580Y-72422380D02*
X81507580Y-72565237D01*
X81507580Y-71803332D02*
X82174247Y-71803332D01*
X82079009Y-71803332D02*
X82126628Y-71755713D01*
X82126628Y-71755713D02*
X82174247Y-71660475D01*
X82174247Y-71660475D02*
X82174247Y-71517618D01*
X82174247Y-71517618D02*
X82126628Y-71422380D01*
X82126628Y-71422380D02*
X82031390Y-71374761D01*
X82031390Y-71374761D02*
X81507580Y-71374761D01*
X82031390Y-71374761D02*
X82126628Y-71327142D01*
X82126628Y-71327142D02*
X82174247Y-71231904D01*
X82174247Y-71231904D02*
X82174247Y-71089047D01*
X82174247Y-71089047D02*
X82126628Y-70993808D01*
X82126628Y-70993808D02*
X82031390Y-70946189D01*
X82031390Y-70946189D02*
X81507580Y-70946189D01*
X82555200Y-69755714D02*
X81269485Y-70612856D01*
X80564303Y-87422380D02*
X79897636Y-87422380D01*
X80564303Y-87850951D02*
X80040494Y-87850951D01*
X80040494Y-87850951D02*
X79945256Y-87803332D01*
X79945256Y-87803332D02*
X79897636Y-87708094D01*
X79897636Y-87708094D02*
X79897636Y-87565237D01*
X79897636Y-87565237D02*
X79945256Y-87469999D01*
X79945256Y-87469999D02*
X79992875Y-87422380D01*
X80564303Y-87041427D02*
X79897636Y-86850951D01*
X79897636Y-86850951D02*
X80373827Y-86660475D01*
X80373827Y-86660475D02*
X79897636Y-86469999D01*
X79897636Y-86469999D02*
X80564303Y-86279523D01*
X80278589Y-85898570D02*
X80278589Y-85136666D01*
X79897636Y-84660475D02*
X80564303Y-84660475D01*
X80469065Y-84660475D02*
X80516684Y-84612856D01*
X80516684Y-84612856D02*
X80564303Y-84517618D01*
X80564303Y-84517618D02*
X80564303Y-84374761D01*
X80564303Y-84374761D02*
X80516684Y-84279523D01*
X80516684Y-84279523D02*
X80421446Y-84231904D01*
X80421446Y-84231904D02*
X79897636Y-84231904D01*
X80421446Y-84231904D02*
X80516684Y-84184285D01*
X80516684Y-84184285D02*
X80564303Y-84089047D01*
X80564303Y-84089047D02*
X80564303Y-83946190D01*
X80564303Y-83946190D02*
X80516684Y-83850951D01*
X80516684Y-83850951D02*
X80421446Y-83803332D01*
X80421446Y-83803332D02*
X79897636Y-83803332D01*
X79897636Y-82898571D02*
X80421446Y-82898571D01*
X80421446Y-82898571D02*
X80516684Y-82946190D01*
X80516684Y-82946190D02*
X80564303Y-83041428D01*
X80564303Y-83041428D02*
X80564303Y-83231904D01*
X80564303Y-83231904D02*
X80516684Y-83327142D01*
X79945256Y-82898571D02*
X79897636Y-82993809D01*
X79897636Y-82993809D02*
X79897636Y-83231904D01*
X79897636Y-83231904D02*
X79945256Y-83327142D01*
X79945256Y-83327142D02*
X80040494Y-83374761D01*
X80040494Y-83374761D02*
X80135732Y-83374761D01*
X80135732Y-83374761D02*
X80230970Y-83327142D01*
X80230970Y-83327142D02*
X80278589Y-83231904D01*
X80278589Y-83231904D02*
X80278589Y-82993809D01*
X80278589Y-82993809D02*
X80326208Y-82898571D01*
X79897636Y-81993809D02*
X80897636Y-81993809D01*
X79945256Y-81993809D02*
X79897636Y-82089047D01*
X79897636Y-82089047D02*
X79897636Y-82279523D01*
X79897636Y-82279523D02*
X79945256Y-82374761D01*
X79945256Y-82374761D02*
X79992875Y-82422380D01*
X79992875Y-82422380D02*
X80088113Y-82469999D01*
X80088113Y-82469999D02*
X80373827Y-82469999D01*
X80373827Y-82469999D02*
X80469065Y-82422380D01*
X80469065Y-82422380D02*
X80516684Y-82374761D01*
X80516684Y-82374761D02*
X80564303Y-82279523D01*
X80564303Y-82279523D02*
X80564303Y-82089047D01*
X80564303Y-82089047D02*
X80516684Y-81993809D01*
X79897636Y-81517618D02*
X80564303Y-81517618D01*
X80897636Y-81517618D02*
X80850017Y-81565237D01*
X80850017Y-81565237D02*
X80802398Y-81517618D01*
X80802398Y-81517618D02*
X80850017Y-81469999D01*
X80850017Y-81469999D02*
X80897636Y-81517618D01*
X80897636Y-81517618D02*
X80802398Y-81517618D01*
X79945256Y-81089047D02*
X79897636Y-80993809D01*
X79897636Y-80993809D02*
X79897636Y-80803333D01*
X79897636Y-80803333D02*
X79945256Y-80708095D01*
X79945256Y-80708095D02*
X80040494Y-80660476D01*
X80040494Y-80660476D02*
X80088113Y-80660476D01*
X80088113Y-80660476D02*
X80183351Y-80708095D01*
X80183351Y-80708095D02*
X80230970Y-80803333D01*
X80230970Y-80803333D02*
X80230970Y-80946190D01*
X80230970Y-80946190D02*
X80278589Y-81041428D01*
X80278589Y-81041428D02*
X80373827Y-81089047D01*
X80373827Y-81089047D02*
X80421446Y-81089047D01*
X80421446Y-81089047D02*
X80516684Y-81041428D01*
X80516684Y-81041428D02*
X80564303Y-80946190D01*
X80564303Y-80946190D02*
X80564303Y-80803333D01*
X80564303Y-80803333D02*
X80516684Y-80708095D01*
X79897636Y-80089047D02*
X79945256Y-80184285D01*
X79945256Y-80184285D02*
X79992875Y-80231904D01*
X79992875Y-80231904D02*
X80088113Y-80279523D01*
X80088113Y-80279523D02*
X80373827Y-80279523D01*
X80373827Y-80279523D02*
X80469065Y-80231904D01*
X80469065Y-80231904D02*
X80516684Y-80184285D01*
X80516684Y-80184285D02*
X80564303Y-80089047D01*
X80564303Y-80089047D02*
X80564303Y-79946190D01*
X80564303Y-79946190D02*
X80516684Y-79850952D01*
X80516684Y-79850952D02*
X80469065Y-79803333D01*
X80469065Y-79803333D02*
X80373827Y-79755714D01*
X80373827Y-79755714D02*
X80088113Y-79755714D01*
X80088113Y-79755714D02*
X79992875Y-79803333D01*
X79992875Y-79803333D02*
X79945256Y-79850952D01*
X79945256Y-79850952D02*
X79897636Y-79946190D01*
X79897636Y-79946190D02*
X79897636Y-80089047D01*
X80564303Y-79327142D02*
X79897636Y-79327142D01*
X80469065Y-79327142D02*
X80516684Y-79279523D01*
X80516684Y-79279523D02*
X80564303Y-79184285D01*
X80564303Y-79184285D02*
X80564303Y-79041428D01*
X80564303Y-79041428D02*
X80516684Y-78946190D01*
X80516684Y-78946190D02*
X80421446Y-78898571D01*
X80421446Y-78898571D02*
X79897636Y-78898571D01*
X80278589Y-78422380D02*
X80278589Y-77660476D01*
X79945256Y-76755714D02*
X79897636Y-76850952D01*
X79897636Y-76850952D02*
X79897636Y-77041428D01*
X79897636Y-77041428D02*
X79945256Y-77136666D01*
X79945256Y-77136666D02*
X79992875Y-77184285D01*
X79992875Y-77184285D02*
X80088113Y-77231904D01*
X80088113Y-77231904D02*
X80373827Y-77231904D01*
X80373827Y-77231904D02*
X80469065Y-77184285D01*
X80469065Y-77184285D02*
X80516684Y-77136666D01*
X80516684Y-77136666D02*
X80564303Y-77041428D01*
X80564303Y-77041428D02*
X80564303Y-76850952D01*
X80564303Y-76850952D02*
X80516684Y-76755714D01*
X79897636Y-76327142D02*
X80897636Y-76327142D01*
X79897636Y-75898571D02*
X80421446Y-75898571D01*
X80421446Y-75898571D02*
X80516684Y-75946190D01*
X80516684Y-75946190D02*
X80564303Y-76041428D01*
X80564303Y-76041428D02*
X80564303Y-76184285D01*
X80564303Y-76184285D02*
X80516684Y-76279523D01*
X80516684Y-76279523D02*
X80469065Y-76327142D01*
X79945256Y-75041428D02*
X79897636Y-75136666D01*
X79897636Y-75136666D02*
X79897636Y-75327142D01*
X79897636Y-75327142D02*
X79945256Y-75422380D01*
X79945256Y-75422380D02*
X80040494Y-75469999D01*
X80040494Y-75469999D02*
X80421446Y-75469999D01*
X80421446Y-75469999D02*
X80516684Y-75422380D01*
X80516684Y-75422380D02*
X80564303Y-75327142D01*
X80564303Y-75327142D02*
X80564303Y-75136666D01*
X80564303Y-75136666D02*
X80516684Y-75041428D01*
X80516684Y-75041428D02*
X80421446Y-74993809D01*
X80421446Y-74993809D02*
X80326208Y-74993809D01*
X80326208Y-74993809D02*
X80230970Y-75469999D01*
X79897636Y-74565237D02*
X80564303Y-74565237D01*
X80469065Y-74565237D02*
X80516684Y-74517618D01*
X80516684Y-74517618D02*
X80564303Y-74422380D01*
X80564303Y-74422380D02*
X80564303Y-74279523D01*
X80564303Y-74279523D02*
X80516684Y-74184285D01*
X80516684Y-74184285D02*
X80421446Y-74136666D01*
X80421446Y-74136666D02*
X79897636Y-74136666D01*
X80421446Y-74136666D02*
X80516684Y-74089047D01*
X80516684Y-74089047D02*
X80564303Y-73993809D01*
X80564303Y-73993809D02*
X80564303Y-73850952D01*
X80564303Y-73850952D02*
X80516684Y-73755713D01*
X80516684Y-73755713D02*
X80421446Y-73708094D01*
X80421446Y-73708094D02*
X79897636Y-73708094D01*
X80278589Y-73231904D02*
X80278589Y-72470000D01*
X79945256Y-72041428D02*
X79897636Y-71946190D01*
X79897636Y-71946190D02*
X79897636Y-71755714D01*
X79897636Y-71755714D02*
X79945256Y-71660476D01*
X79945256Y-71660476D02*
X80040494Y-71612857D01*
X80040494Y-71612857D02*
X80088113Y-71612857D01*
X80088113Y-71612857D02*
X80183351Y-71660476D01*
X80183351Y-71660476D02*
X80230970Y-71755714D01*
X80230970Y-71755714D02*
X80230970Y-71898571D01*
X80230970Y-71898571D02*
X80278589Y-71993809D01*
X80278589Y-71993809D02*
X80373827Y-72041428D01*
X80373827Y-72041428D02*
X80421446Y-72041428D01*
X80421446Y-72041428D02*
X80516684Y-71993809D01*
X80516684Y-71993809D02*
X80564303Y-71898571D01*
X80564303Y-71898571D02*
X80564303Y-71755714D01*
X80564303Y-71755714D02*
X80516684Y-71660476D01*
X79897636Y-71184285D02*
X80897636Y-71184285D01*
X79897636Y-70755714D02*
X80421446Y-70755714D01*
X80421446Y-70755714D02*
X80516684Y-70803333D01*
X80516684Y-70803333D02*
X80564303Y-70898571D01*
X80564303Y-70898571D02*
X80564303Y-71041428D01*
X80564303Y-71041428D02*
X80516684Y-71136666D01*
X80516684Y-71136666D02*
X80469065Y-71184285D01*
X79897636Y-70136666D02*
X79945256Y-70231904D01*
X79945256Y-70231904D02*
X79992875Y-70279523D01*
X79992875Y-70279523D02*
X80088113Y-70327142D01*
X80088113Y-70327142D02*
X80373827Y-70327142D01*
X80373827Y-70327142D02*
X80469065Y-70279523D01*
X80469065Y-70279523D02*
X80516684Y-70231904D01*
X80516684Y-70231904D02*
X80564303Y-70136666D01*
X80564303Y-70136666D02*
X80564303Y-69993809D01*
X80564303Y-69993809D02*
X80516684Y-69898571D01*
X80516684Y-69898571D02*
X80469065Y-69850952D01*
X80469065Y-69850952D02*
X80373827Y-69803333D01*
X80373827Y-69803333D02*
X80088113Y-69803333D01*
X80088113Y-69803333D02*
X79992875Y-69850952D01*
X79992875Y-69850952D02*
X79945256Y-69898571D01*
X79945256Y-69898571D02*
X79897636Y-69993809D01*
X79897636Y-69993809D02*
X79897636Y-70136666D01*
X80564303Y-69374761D02*
X79564303Y-69374761D01*
X80516684Y-69374761D02*
X80564303Y-69279523D01*
X80564303Y-69279523D02*
X80564303Y-69089047D01*
X80564303Y-69089047D02*
X80516684Y-68993809D01*
X80516684Y-68993809D02*
X80469065Y-68946190D01*
X80469065Y-68946190D02*
X80373827Y-68898571D01*
X80373827Y-68898571D02*
X80088113Y-68898571D01*
X80088113Y-68898571D02*
X79992875Y-68946190D01*
X79992875Y-68946190D02*
X79945256Y-68993809D01*
X79945256Y-68993809D02*
X79897636Y-69089047D01*
X79897636Y-69089047D02*
X79897636Y-69279523D01*
X79897636Y-69279523D02*
X79945256Y-69374761D01*
X79945256Y-68517618D02*
X79897636Y-68422380D01*
X79897636Y-68422380D02*
X79897636Y-68231904D01*
X79897636Y-68231904D02*
X79945256Y-68136666D01*
X79945256Y-68136666D02*
X80040494Y-68089047D01*
X80040494Y-68089047D02*
X80088113Y-68089047D01*
X80088113Y-68089047D02*
X80183351Y-68136666D01*
X80183351Y-68136666D02*
X80230970Y-68231904D01*
X80230970Y-68231904D02*
X80230970Y-68374761D01*
X80230970Y-68374761D02*
X80278589Y-68469999D01*
X80278589Y-68469999D02*
X80373827Y-68517618D01*
X80373827Y-68517618D02*
X80421446Y-68517618D01*
X80421446Y-68517618D02*
X80516684Y-68469999D01*
X80516684Y-68469999D02*
X80564303Y-68374761D01*
X80564303Y-68374761D02*
X80564303Y-68231904D01*
X80564303Y-68231904D02*
X80516684Y-68136666D01*
X80945256Y-66946190D02*
X79659541Y-67803332D01*
X78287692Y-86350953D02*
X78954359Y-86350953D01*
X78859121Y-86350953D02*
X78906740Y-86303334D01*
X78906740Y-86303334D02*
X78954359Y-86208096D01*
X78954359Y-86208096D02*
X78954359Y-86065239D01*
X78954359Y-86065239D02*
X78906740Y-85970001D01*
X78906740Y-85970001D02*
X78811502Y-85922382D01*
X78811502Y-85922382D02*
X78287692Y-85922382D01*
X78811502Y-85922382D02*
X78906740Y-85874763D01*
X78906740Y-85874763D02*
X78954359Y-85779525D01*
X78954359Y-85779525D02*
X78954359Y-85636668D01*
X78954359Y-85636668D02*
X78906740Y-85541429D01*
X78906740Y-85541429D02*
X78811502Y-85493810D01*
X78811502Y-85493810D02*
X78287692Y-85493810D01*
X78954359Y-84589049D02*
X78287692Y-84589049D01*
X78954359Y-85017620D02*
X78430550Y-85017620D01*
X78430550Y-85017620D02*
X78335312Y-84970001D01*
X78335312Y-84970001D02*
X78287692Y-84874763D01*
X78287692Y-84874763D02*
X78287692Y-84731906D01*
X78287692Y-84731906D02*
X78335312Y-84636668D01*
X78335312Y-84636668D02*
X78382931Y-84589049D01*
X78287692Y-83970001D02*
X78335312Y-84065239D01*
X78335312Y-84065239D02*
X78430550Y-84112858D01*
X78430550Y-84112858D02*
X79287692Y-84112858D01*
X78954359Y-83731905D02*
X78954359Y-83350953D01*
X79287692Y-83589048D02*
X78430550Y-83589048D01*
X78430550Y-83589048D02*
X78335312Y-83541429D01*
X78335312Y-83541429D02*
X78287692Y-83446191D01*
X78287692Y-83446191D02*
X78287692Y-83350953D01*
X78287692Y-83017619D02*
X78954359Y-83017619D01*
X79287692Y-83017619D02*
X79240073Y-83065238D01*
X79240073Y-83065238D02*
X79192454Y-83017619D01*
X79192454Y-83017619D02*
X79240073Y-82970000D01*
X79240073Y-82970000D02*
X79287692Y-83017619D01*
X79287692Y-83017619D02*
X79192454Y-83017619D01*
X78954359Y-82684286D02*
X78954359Y-82303334D01*
X78287692Y-82541429D02*
X79144835Y-82541429D01*
X79144835Y-82541429D02*
X79240073Y-82493810D01*
X79240073Y-82493810D02*
X79287692Y-82398572D01*
X79287692Y-82398572D02*
X79287692Y-82303334D01*
X78287692Y-81541429D02*
X78811502Y-81541429D01*
X78811502Y-81541429D02*
X78906740Y-81589048D01*
X78906740Y-81589048D02*
X78954359Y-81684286D01*
X78954359Y-81684286D02*
X78954359Y-81874762D01*
X78954359Y-81874762D02*
X78906740Y-81970000D01*
X78335312Y-81541429D02*
X78287692Y-81636667D01*
X78287692Y-81636667D02*
X78287692Y-81874762D01*
X78287692Y-81874762D02*
X78335312Y-81970000D01*
X78335312Y-81970000D02*
X78430550Y-82017619D01*
X78430550Y-82017619D02*
X78525788Y-82017619D01*
X78525788Y-82017619D02*
X78621026Y-81970000D01*
X78621026Y-81970000D02*
X78668645Y-81874762D01*
X78668645Y-81874762D02*
X78668645Y-81636667D01*
X78668645Y-81636667D02*
X78716264Y-81541429D01*
X78954359Y-81065238D02*
X78287692Y-81065238D01*
X78859121Y-81065238D02*
X78906740Y-81017619D01*
X78906740Y-81017619D02*
X78954359Y-80922381D01*
X78954359Y-80922381D02*
X78954359Y-80779524D01*
X78954359Y-80779524D02*
X78906740Y-80684286D01*
X78906740Y-80684286D02*
X78811502Y-80636667D01*
X78811502Y-80636667D02*
X78287692Y-80636667D01*
X78668645Y-80160476D02*
X78668645Y-79398572D01*
X78287692Y-78922381D02*
X78954359Y-78922381D01*
X79287692Y-78922381D02*
X79240073Y-78970000D01*
X79240073Y-78970000D02*
X79192454Y-78922381D01*
X79192454Y-78922381D02*
X79240073Y-78874762D01*
X79240073Y-78874762D02*
X79287692Y-78922381D01*
X79287692Y-78922381D02*
X79192454Y-78922381D01*
X79192454Y-78493810D02*
X79240073Y-78446191D01*
X79240073Y-78446191D02*
X79287692Y-78350953D01*
X79287692Y-78350953D02*
X79287692Y-78112858D01*
X79287692Y-78112858D02*
X79240073Y-78017620D01*
X79240073Y-78017620D02*
X79192454Y-77970001D01*
X79192454Y-77970001D02*
X79097216Y-77922382D01*
X79097216Y-77922382D02*
X79001978Y-77922382D01*
X79001978Y-77922382D02*
X78859121Y-77970001D01*
X78859121Y-77970001D02*
X78287692Y-78541429D01*
X78287692Y-78541429D02*
X78287692Y-77922382D01*
X78335312Y-77065239D02*
X78287692Y-77160477D01*
X78287692Y-77160477D02*
X78287692Y-77350953D01*
X78287692Y-77350953D02*
X78335312Y-77446191D01*
X78335312Y-77446191D02*
X78382931Y-77493810D01*
X78382931Y-77493810D02*
X78478169Y-77541429D01*
X78478169Y-77541429D02*
X78763883Y-77541429D01*
X78763883Y-77541429D02*
X78859121Y-77493810D01*
X78859121Y-77493810D02*
X78906740Y-77446191D01*
X78906740Y-77446191D02*
X78954359Y-77350953D01*
X78954359Y-77350953D02*
X78954359Y-77160477D01*
X78954359Y-77160477D02*
X78906740Y-77065239D01*
X78668645Y-76636667D02*
X78668645Y-75874763D01*
X78335312Y-74970001D02*
X78287692Y-75065239D01*
X78287692Y-75065239D02*
X78287692Y-75255715D01*
X78287692Y-75255715D02*
X78335312Y-75350953D01*
X78335312Y-75350953D02*
X78382931Y-75398572D01*
X78382931Y-75398572D02*
X78478169Y-75446191D01*
X78478169Y-75446191D02*
X78763883Y-75446191D01*
X78763883Y-75446191D02*
X78859121Y-75398572D01*
X78859121Y-75398572D02*
X78906740Y-75350953D01*
X78906740Y-75350953D02*
X78954359Y-75255715D01*
X78954359Y-75255715D02*
X78954359Y-75065239D01*
X78954359Y-75065239D02*
X78906740Y-74970001D01*
X78287692Y-74398572D02*
X78335312Y-74493810D01*
X78335312Y-74493810D02*
X78382931Y-74541429D01*
X78382931Y-74541429D02*
X78478169Y-74589048D01*
X78478169Y-74589048D02*
X78763883Y-74589048D01*
X78763883Y-74589048D02*
X78859121Y-74541429D01*
X78859121Y-74541429D02*
X78906740Y-74493810D01*
X78906740Y-74493810D02*
X78954359Y-74398572D01*
X78954359Y-74398572D02*
X78954359Y-74255715D01*
X78954359Y-74255715D02*
X78906740Y-74160477D01*
X78906740Y-74160477D02*
X78859121Y-74112858D01*
X78859121Y-74112858D02*
X78763883Y-74065239D01*
X78763883Y-74065239D02*
X78478169Y-74065239D01*
X78478169Y-74065239D02*
X78382931Y-74112858D01*
X78382931Y-74112858D02*
X78335312Y-74160477D01*
X78335312Y-74160477D02*
X78287692Y-74255715D01*
X78287692Y-74255715D02*
X78287692Y-74398572D01*
X78954359Y-73636667D02*
X78287692Y-73636667D01*
X78859121Y-73636667D02*
X78906740Y-73589048D01*
X78906740Y-73589048D02*
X78954359Y-73493810D01*
X78954359Y-73493810D02*
X78954359Y-73350953D01*
X78954359Y-73350953D02*
X78906740Y-73255715D01*
X78906740Y-73255715D02*
X78811502Y-73208096D01*
X78811502Y-73208096D02*
X78287692Y-73208096D01*
X78954359Y-72874762D02*
X78954359Y-72493810D01*
X79287692Y-72731905D02*
X78430550Y-72731905D01*
X78430550Y-72731905D02*
X78335312Y-72684286D01*
X78335312Y-72684286D02*
X78287692Y-72589048D01*
X78287692Y-72589048D02*
X78287692Y-72493810D01*
X78287692Y-72160476D02*
X78954359Y-72160476D01*
X78763883Y-72160476D02*
X78859121Y-72112857D01*
X78859121Y-72112857D02*
X78906740Y-72065238D01*
X78906740Y-72065238D02*
X78954359Y-71970000D01*
X78954359Y-71970000D02*
X78954359Y-71874762D01*
X78287692Y-71398571D02*
X78335312Y-71493809D01*
X78335312Y-71493809D02*
X78382931Y-71541428D01*
X78382931Y-71541428D02*
X78478169Y-71589047D01*
X78478169Y-71589047D02*
X78763883Y-71589047D01*
X78763883Y-71589047D02*
X78859121Y-71541428D01*
X78859121Y-71541428D02*
X78906740Y-71493809D01*
X78906740Y-71493809D02*
X78954359Y-71398571D01*
X78954359Y-71398571D02*
X78954359Y-71255714D01*
X78954359Y-71255714D02*
X78906740Y-71160476D01*
X78906740Y-71160476D02*
X78859121Y-71112857D01*
X78859121Y-71112857D02*
X78763883Y-71065238D01*
X78763883Y-71065238D02*
X78478169Y-71065238D01*
X78478169Y-71065238D02*
X78382931Y-71112857D01*
X78382931Y-71112857D02*
X78335312Y-71160476D01*
X78335312Y-71160476D02*
X78287692Y-71255714D01*
X78287692Y-71255714D02*
X78287692Y-71398571D01*
X78287692Y-70493809D02*
X78335312Y-70589047D01*
X78335312Y-70589047D02*
X78430550Y-70636666D01*
X78430550Y-70636666D02*
X79287692Y-70636666D01*
X78287692Y-69969999D02*
X78335312Y-70065237D01*
X78335312Y-70065237D02*
X78430550Y-70112856D01*
X78430550Y-70112856D02*
X79287692Y-70112856D01*
X78335312Y-69208094D02*
X78287692Y-69303332D01*
X78287692Y-69303332D02*
X78287692Y-69493808D01*
X78287692Y-69493808D02*
X78335312Y-69589046D01*
X78335312Y-69589046D02*
X78430550Y-69636665D01*
X78430550Y-69636665D02*
X78811502Y-69636665D01*
X78811502Y-69636665D02*
X78906740Y-69589046D01*
X78906740Y-69589046D02*
X78954359Y-69493808D01*
X78954359Y-69493808D02*
X78954359Y-69303332D01*
X78954359Y-69303332D02*
X78906740Y-69208094D01*
X78906740Y-69208094D02*
X78811502Y-69160475D01*
X78811502Y-69160475D02*
X78716264Y-69160475D01*
X78716264Y-69160475D02*
X78621026Y-69636665D01*
X78287692Y-68731903D02*
X78954359Y-68731903D01*
X78763883Y-68731903D02*
X78859121Y-68684284D01*
X78859121Y-68684284D02*
X78906740Y-68636665D01*
X78906740Y-68636665D02*
X78954359Y-68541427D01*
X78954359Y-68541427D02*
X78954359Y-68446189D01*
D11*
%TO.C,REF\u002A\u002A*%
X85316594Y-71900847D02*
X85418382Y-71944897D01*
X85513765Y-72016123D01*
X85579731Y-72099415D01*
X85594982Y-72134310D01*
X85620479Y-72266443D01*
X85610381Y-72406725D01*
X85565607Y-72527261D01*
X85531966Y-72577388D01*
X85483764Y-72628152D01*
X85422449Y-72664362D01*
X85338976Y-72688393D01*
X85224303Y-72702618D01*
X85069387Y-72709412D01*
X84865186Y-72711149D01*
X84759659Y-72710809D01*
X84615459Y-72709101D01*
X84500380Y-72706201D01*
X84424178Y-72702384D01*
X84396609Y-72697925D01*
X84405728Y-72668909D01*
X84430491Y-72610339D01*
X84431293Y-72608581D01*
X84447215Y-72578167D01*
X84469062Y-72557712D01*
X84507328Y-72545240D01*
X84572505Y-72538777D01*
X84675087Y-72536348D01*
X84825567Y-72535977D01*
X84921026Y-72535229D01*
X85100429Y-72527256D01*
X85231837Y-72508998D01*
X85322141Y-72478526D01*
X85378233Y-72433912D01*
X85407006Y-72373226D01*
X85409011Y-72364807D01*
X85410577Y-72251139D01*
X85359652Y-72162492D01*
X85257555Y-72101265D01*
X85228039Y-72090346D01*
X85162717Y-72065458D01*
X85132700Y-72052854D01*
X85136836Y-72026969D01*
X85159283Y-71970439D01*
X85196353Y-71917715D01*
X85266413Y-71893678D01*
X85316594Y-71900847D01*
G36*
X85316594Y-71900847D02*
G01*
X85418382Y-71944897D01*
X85513765Y-72016123D01*
X85579731Y-72099415D01*
X85594982Y-72134310D01*
X85620479Y-72266443D01*
X85610381Y-72406725D01*
X85565607Y-72527261D01*
X85531966Y-72577388D01*
X85483764Y-72628152D01*
X85422449Y-72664362D01*
X85338976Y-72688393D01*
X85224303Y-72702618D01*
X85069387Y-72709412D01*
X84865186Y-72711149D01*
X84759659Y-72710809D01*
X84615459Y-72709101D01*
X84500380Y-72706201D01*
X84424178Y-72702384D01*
X84396609Y-72697925D01*
X84405728Y-72668909D01*
X84430491Y-72610339D01*
X84431293Y-72608581D01*
X84447215Y-72578167D01*
X84469062Y-72557712D01*
X84507328Y-72545240D01*
X84572505Y-72538777D01*
X84675087Y-72536348D01*
X84825567Y-72535977D01*
X84921026Y-72535229D01*
X85100429Y-72527256D01*
X85231837Y-72508998D01*
X85322141Y-72478526D01*
X85378233Y-72433912D01*
X85407006Y-72373226D01*
X85409011Y-72364807D01*
X85410577Y-72251139D01*
X85359652Y-72162492D01*
X85257555Y-72101265D01*
X85228039Y-72090346D01*
X85162717Y-72065458D01*
X85132700Y-72052854D01*
X85136836Y-72026969D01*
X85159283Y-71970439D01*
X85196353Y-71917715D01*
X85266413Y-71893678D01*
X85316594Y-71900847D01*
G37*
X85041902Y-79776951D02*
X85208494Y-79781380D01*
X85332532Y-79792594D01*
X85424013Y-79813272D01*
X85492934Y-79846093D01*
X85549293Y-79893736D01*
X85603086Y-79958877D01*
X85657281Y-80052571D01*
X85692661Y-80200175D01*
X85677311Y-80348487D01*
X85613230Y-80484848D01*
X85502416Y-80596598D01*
X85467727Y-80619761D01*
X85428410Y-80638973D01*
X85378855Y-80652598D01*
X85309432Y-80661877D01*
X85210510Y-80668050D01*
X85072461Y-80672357D01*
X84885654Y-80676038D01*
X84367458Y-80685180D01*
X84396656Y-80608383D01*
X84423480Y-80538068D01*
X84449294Y-80485424D01*
X84482569Y-80451060D01*
X84533490Y-80431093D01*
X84612239Y-80421639D01*
X84729001Y-80418814D01*
X84893958Y-80418736D01*
X85025442Y-80418336D01*
X85151606Y-80415951D01*
X85237777Y-80410259D01*
X85294328Y-80399961D01*
X85331630Y-80383755D01*
X85360057Y-80360345D01*
X85400173Y-80302793D01*
X85415294Y-80206112D01*
X85377083Y-80110465D01*
X85372190Y-80104152D01*
X85349587Y-80084477D01*
X85313336Y-80069963D01*
X85254489Y-80059394D01*
X85164099Y-80051555D01*
X85033221Y-80045227D01*
X84852905Y-80039195D01*
X84370093Y-80024598D01*
X84425717Y-79900517D01*
X84481341Y-79776437D01*
X84922149Y-79776437D01*
X85041902Y-79776951D01*
G36*
X85041902Y-79776951D02*
G01*
X85208494Y-79781380D01*
X85332532Y-79792594D01*
X85424013Y-79813272D01*
X85492934Y-79846093D01*
X85549293Y-79893736D01*
X85603086Y-79958877D01*
X85657281Y-80052571D01*
X85692661Y-80200175D01*
X85677311Y-80348487D01*
X85613230Y-80484848D01*
X85502416Y-80596598D01*
X85467727Y-80619761D01*
X85428410Y-80638973D01*
X85378855Y-80652598D01*
X85309432Y-80661877D01*
X85210510Y-80668050D01*
X85072461Y-80672357D01*
X84885654Y-80676038D01*
X84367458Y-80685180D01*
X84396656Y-80608383D01*
X84423480Y-80538068D01*
X84449294Y-80485424D01*
X84482569Y-80451060D01*
X84533490Y-80431093D01*
X84612239Y-80421639D01*
X84729001Y-80418814D01*
X84893958Y-80418736D01*
X85025442Y-80418336D01*
X85151606Y-80415951D01*
X85237777Y-80410259D01*
X85294328Y-80399961D01*
X85331630Y-80383755D01*
X85360057Y-80360345D01*
X85400173Y-80302793D01*
X85415294Y-80206112D01*
X85377083Y-80110465D01*
X85372190Y-80104152D01*
X85349587Y-80084477D01*
X85313336Y-80069963D01*
X85254489Y-80059394D01*
X85164099Y-80051555D01*
X85033221Y-80045227D01*
X84852905Y-80039195D01*
X84370093Y-80024598D01*
X84425717Y-79900517D01*
X84481341Y-79776437D01*
X84922149Y-79776437D01*
X85041902Y-79776951D01*
G37*
X85416648Y-76121968D02*
X85477581Y-76163990D01*
X85564141Y-76271435D01*
X85613080Y-76404057D01*
X85619740Y-76545867D01*
X85579464Y-76680872D01*
X85574362Y-76690090D01*
X85515920Y-76765381D01*
X85440785Y-76832698D01*
X85423804Y-76844439D01*
X85384175Y-76866883D01*
X85337142Y-76882918D01*
X85272508Y-76893945D01*
X85180077Y-76901365D01*
X85049651Y-76906579D01*
X84871035Y-76910989D01*
X84840838Y-76911614D01*
X84645059Y-76913620D01*
X84506397Y-76910792D01*
X84423897Y-76903088D01*
X84396609Y-76890466D01*
X84404780Y-76852267D01*
X84429537Y-76787374D01*
X84436777Y-76772094D01*
X84453165Y-76748227D01*
X84480107Y-76731769D01*
X84527167Y-76721005D01*
X84603912Y-76714219D01*
X84719905Y-76709693D01*
X84884713Y-76705713D01*
X84932888Y-76704622D01*
X85085040Y-76700407D01*
X85191524Y-76694936D01*
X85262435Y-76686554D01*
X85307871Y-76673606D01*
X85337928Y-76654439D01*
X85362704Y-76627398D01*
X85406139Y-76547337D01*
X85414502Y-76448846D01*
X85381266Y-76360719D01*
X85312452Y-76297314D01*
X85214080Y-76272988D01*
X85187342Y-76272311D01*
X85138935Y-76259024D01*
X85131550Y-76219796D01*
X85160376Y-76142983D01*
X85169622Y-76125192D01*
X85223994Y-76077109D01*
X85304839Y-76076157D01*
X85416648Y-76121968D01*
G36*
X85416648Y-76121968D02*
G01*
X85477581Y-76163990D01*
X85564141Y-76271435D01*
X85613080Y-76404057D01*
X85619740Y-76545867D01*
X85579464Y-76680872D01*
X85574362Y-76690090D01*
X85515920Y-76765381D01*
X85440785Y-76832698D01*
X85423804Y-76844439D01*
X85384175Y-76866883D01*
X85337142Y-76882918D01*
X85272508Y-76893945D01*
X85180077Y-76901365D01*
X85049651Y-76906579D01*
X84871035Y-76910989D01*
X84840838Y-76911614D01*
X84645059Y-76913620D01*
X84506397Y-76910792D01*
X84423897Y-76903088D01*
X84396609Y-76890466D01*
X84404780Y-76852267D01*
X84429537Y-76787374D01*
X84436777Y-76772094D01*
X84453165Y-76748227D01*
X84480107Y-76731769D01*
X84527167Y-76721005D01*
X84603912Y-76714219D01*
X84719905Y-76709693D01*
X84884713Y-76705713D01*
X84932888Y-76704622D01*
X85085040Y-76700407D01*
X85191524Y-76694936D01*
X85262435Y-76686554D01*
X85307871Y-76673606D01*
X85337928Y-76654439D01*
X85362704Y-76627398D01*
X85406139Y-76547337D01*
X85414502Y-76448846D01*
X85381266Y-76360719D01*
X85312452Y-76297314D01*
X85214080Y-76272988D01*
X85187342Y-76272311D01*
X85138935Y-76259024D01*
X85131550Y-76219796D01*
X85160376Y-76142983D01*
X85169622Y-76125192D01*
X85223994Y-76077109D01*
X85304839Y-76076157D01*
X85416648Y-76121968D01*
G37*
X85254179Y-73879685D02*
X85401609Y-73881929D01*
X85518347Y-73885421D01*
X85595160Y-73889876D01*
X85622816Y-73895013D01*
X85622742Y-73896090D01*
X85608981Y-73933407D01*
X85578656Y-73996457D01*
X85534495Y-74081854D01*
X85075035Y-74089893D01*
X84615575Y-74097931D01*
X84615575Y-74273103D01*
X85119195Y-74281092D01*
X85256096Y-74283624D01*
X85402421Y-74287249D01*
X85518589Y-74291177D01*
X85595191Y-74295080D01*
X85622816Y-74298632D01*
X85622719Y-74299653D01*
X85612557Y-74335051D01*
X85590765Y-74400126D01*
X85558713Y-74492069D01*
X85116339Y-74492516D01*
X85039493Y-74492964D01*
X84890166Y-74496069D01*
X84765456Y-74501622D01*
X84676621Y-74509033D01*
X84634917Y-74517714D01*
X84612611Y-74548771D01*
X84605722Y-74612152D01*
X84615575Y-74681839D01*
X85119195Y-74689827D01*
X85247172Y-74692686D01*
X85398652Y-74698614D01*
X85517470Y-74706365D01*
X85595050Y-74715343D01*
X85622816Y-74724948D01*
X85614030Y-74762410D01*
X85588934Y-74826442D01*
X85555053Y-74900805D01*
X84576273Y-74900805D01*
X84483883Y-74808415D01*
X84463165Y-74787310D01*
X84417115Y-74728847D01*
X84402199Y-74669886D01*
X84409066Y-74582150D01*
X84413506Y-74546429D01*
X84422898Y-74454301D01*
X84426639Y-74389885D01*
X84426067Y-74370778D01*
X84419874Y-74292390D01*
X84409066Y-74197620D01*
X84405353Y-74167298D01*
X84403893Y-74090911D01*
X84426953Y-74035022D01*
X84483883Y-73971355D01*
X84576273Y-73878965D01*
X85099545Y-73878965D01*
X85254179Y-73879685D01*
G36*
X85254179Y-73879685D02*
G01*
X85401609Y-73881929D01*
X85518347Y-73885421D01*
X85595160Y-73889876D01*
X85622816Y-73895013D01*
X85622742Y-73896090D01*
X85608981Y-73933407D01*
X85578656Y-73996457D01*
X85534495Y-74081854D01*
X85075035Y-74089893D01*
X84615575Y-74097931D01*
X84615575Y-74273103D01*
X85119195Y-74281092D01*
X85256096Y-74283624D01*
X85402421Y-74287249D01*
X85518589Y-74291177D01*
X85595191Y-74295080D01*
X85622816Y-74298632D01*
X85622719Y-74299653D01*
X85612557Y-74335051D01*
X85590765Y-74400126D01*
X85558713Y-74492069D01*
X85116339Y-74492516D01*
X85039493Y-74492964D01*
X84890166Y-74496069D01*
X84765456Y-74501622D01*
X84676621Y-74509033D01*
X84634917Y-74517714D01*
X84612611Y-74548771D01*
X84605722Y-74612152D01*
X84615575Y-74681839D01*
X85119195Y-74689827D01*
X85247172Y-74692686D01*
X85398652Y-74698614D01*
X85517470Y-74706365D01*
X85595050Y-74715343D01*
X85622816Y-74724948D01*
X85614030Y-74762410D01*
X85588934Y-74826442D01*
X85555053Y-74900805D01*
X84576273Y-74900805D01*
X84483883Y-74808415D01*
X84463165Y-74787310D01*
X84417115Y-74728847D01*
X84402199Y-74669886D01*
X84409066Y-74582150D01*
X84413506Y-74546429D01*
X84422898Y-74454301D01*
X84426639Y-74389885D01*
X84426067Y-74370778D01*
X84419874Y-74292390D01*
X84409066Y-74197620D01*
X84405353Y-74167298D01*
X84403893Y-74090911D01*
X84426953Y-74035022D01*
X84483883Y-73971355D01*
X84576273Y-73878965D01*
X85099545Y-73878965D01*
X85254179Y-73879685D01*
G37*
X84873891Y-78083149D02*
X84910674Y-78083218D01*
X85102420Y-78087081D01*
X85247414Y-78098950D01*
X85355490Y-78121725D01*
X85436481Y-78158307D01*
X85500222Y-78211595D01*
X85556545Y-78284490D01*
X85591801Y-78355586D01*
X85619054Y-78469255D01*
X85620602Y-78581060D01*
X85594090Y-78667011D01*
X85590429Y-78673473D01*
X85590821Y-78693401D01*
X85621494Y-78707019D01*
X85691812Y-78716846D01*
X85811143Y-78725402D01*
X86056027Y-78740000D01*
X86016003Y-78834885D01*
X85975980Y-78929770D01*
X85186294Y-78929770D01*
X85177080Y-78929769D01*
X84969917Y-78929377D01*
X84783568Y-78928329D01*
X84625547Y-78926722D01*
X84503370Y-78924655D01*
X84424552Y-78922225D01*
X84396609Y-78919529D01*
X84396703Y-78918475D01*
X84406856Y-78882647D01*
X84428661Y-78817345D01*
X84460712Y-78725402D01*
X84872009Y-78725402D01*
X85033615Y-78724818D01*
X85150823Y-78722104D01*
X85230585Y-78715858D01*
X85283469Y-78704680D01*
X85320043Y-78687168D01*
X85350877Y-78661922D01*
X85367275Y-78644710D01*
X85412693Y-78551636D01*
X85408672Y-78449051D01*
X85354968Y-78355043D01*
X85341641Y-78341358D01*
X85313968Y-78319439D01*
X85277386Y-78304440D01*
X85222000Y-78295053D01*
X85137912Y-78289968D01*
X85015227Y-78287877D01*
X84844049Y-78287471D01*
X84757231Y-78287276D01*
X84614435Y-78286010D01*
X84500077Y-78283761D01*
X84424140Y-78280758D01*
X84396609Y-78277230D01*
X84396703Y-78276176D01*
X84406856Y-78240348D01*
X84428661Y-78175046D01*
X84460712Y-78083103D01*
X84873891Y-78083149D01*
G36*
X84873891Y-78083149D02*
G01*
X84910674Y-78083218D01*
X85102420Y-78087081D01*
X85247414Y-78098950D01*
X85355490Y-78121725D01*
X85436481Y-78158307D01*
X85500222Y-78211595D01*
X85556545Y-78284490D01*
X85591801Y-78355586D01*
X85619054Y-78469255D01*
X85620602Y-78581060D01*
X85594090Y-78667011D01*
X85590429Y-78673473D01*
X85590821Y-78693401D01*
X85621494Y-78707019D01*
X85691812Y-78716846D01*
X85811143Y-78725402D01*
X86056027Y-78740000D01*
X86016003Y-78834885D01*
X85975980Y-78929770D01*
X85186294Y-78929770D01*
X85177080Y-78929769D01*
X84969917Y-78929377D01*
X84783568Y-78928329D01*
X84625547Y-78926722D01*
X84503370Y-78924655D01*
X84424552Y-78922225D01*
X84396609Y-78919529D01*
X84396703Y-78918475D01*
X84406856Y-78882647D01*
X84428661Y-78817345D01*
X84460712Y-78725402D01*
X84872009Y-78725402D01*
X85033615Y-78724818D01*
X85150823Y-78722104D01*
X85230585Y-78715858D01*
X85283469Y-78704680D01*
X85320043Y-78687168D01*
X85350877Y-78661922D01*
X85367275Y-78644710D01*
X85412693Y-78551636D01*
X85408672Y-78449051D01*
X85354968Y-78355043D01*
X85341641Y-78341358D01*
X85313968Y-78319439D01*
X85277386Y-78304440D01*
X85222000Y-78295053D01*
X85137912Y-78289968D01*
X85015227Y-78287877D01*
X84844049Y-78287471D01*
X84757231Y-78287276D01*
X84614435Y-78286010D01*
X84500077Y-78283761D01*
X84424140Y-78280758D01*
X84396609Y-78277230D01*
X84396703Y-78276176D01*
X84406856Y-78240348D01*
X84428661Y-78175046D01*
X84460712Y-78083103D01*
X84873891Y-78083149D01*
G37*
X85153773Y-83105871D02*
X85295008Y-83120161D01*
X85406787Y-83148075D01*
X85481234Y-83183949D01*
X85597032Y-83284939D01*
X85668985Y-83421779D01*
X85693719Y-83589283D01*
X85692381Y-83634019D01*
X85664992Y-83765758D01*
X85595993Y-83873968D01*
X85477136Y-83973276D01*
X85468319Y-83979184D01*
X85420892Y-84005921D01*
X85367286Y-84023312D01*
X85294451Y-84033312D01*
X85189341Y-84037878D01*
X85048981Y-84038893D01*
X85038908Y-84038965D01*
X85007256Y-84038938D01*
X84866082Y-84037355D01*
X84767715Y-84031916D01*
X84699010Y-84020643D01*
X84646819Y-84001561D01*
X84597996Y-83972694D01*
X84587865Y-83965592D01*
X84507988Y-83890444D01*
X84447747Y-83804820D01*
X84428198Y-83760852D01*
X84398874Y-83618764D01*
X84667828Y-83618764D01*
X84717759Y-83688621D01*
X84730898Y-83700771D01*
X84770215Y-83724575D01*
X84827326Y-83738628D01*
X84915744Y-83745313D01*
X85048981Y-83747011D01*
X85173778Y-83744101D01*
X85292674Y-83729582D01*
X85367816Y-83699610D01*
X85407107Y-83650589D01*
X85418448Y-83578924D01*
X85416193Y-83551632D01*
X85374840Y-83475176D01*
X85282100Y-83424650D01*
X85138853Y-83400384D01*
X84945980Y-83402706D01*
X84933567Y-83403639D01*
X84827143Y-83417242D01*
X84759654Y-83441465D01*
X84713416Y-83482365D01*
X84670105Y-83550941D01*
X84667828Y-83618764D01*
X84398874Y-83618764D01*
X84395592Y-83602861D01*
X84416683Y-83446613D01*
X84488751Y-83302618D01*
X84609078Y-83181385D01*
X84625197Y-83171150D01*
X84718795Y-83137847D01*
X84849121Y-83115405D01*
X84999629Y-83104516D01*
X85153773Y-83105871D01*
G36*
X85153773Y-83105871D02*
G01*
X85295008Y-83120161D01*
X85406787Y-83148075D01*
X85481234Y-83183949D01*
X85597032Y-83284939D01*
X85668985Y-83421779D01*
X85693719Y-83589283D01*
X85692381Y-83634019D01*
X85664992Y-83765758D01*
X85595993Y-83873968D01*
X85477136Y-83973276D01*
X85468319Y-83979184D01*
X85420892Y-84005921D01*
X85367286Y-84023312D01*
X85294451Y-84033312D01*
X85189341Y-84037878D01*
X85048981Y-84038893D01*
X85038908Y-84038965D01*
X85007256Y-84038938D01*
X84866082Y-84037355D01*
X84767715Y-84031916D01*
X84699010Y-84020643D01*
X84646819Y-84001561D01*
X84597996Y-83972694D01*
X84587865Y-83965592D01*
X84507988Y-83890444D01*
X84447747Y-83804820D01*
X84428198Y-83760852D01*
X84398874Y-83618764D01*
X84667828Y-83618764D01*
X84717759Y-83688621D01*
X84730898Y-83700771D01*
X84770215Y-83724575D01*
X84827326Y-83738628D01*
X84915744Y-83745313D01*
X85048981Y-83747011D01*
X85173778Y-83744101D01*
X85292674Y-83729582D01*
X85367816Y-83699610D01*
X85407107Y-83650589D01*
X85418448Y-83578924D01*
X85416193Y-83551632D01*
X85374840Y-83475176D01*
X85282100Y-83424650D01*
X85138853Y-83400384D01*
X84945980Y-83402706D01*
X84933567Y-83403639D01*
X84827143Y-83417242D01*
X84759654Y-83441465D01*
X84713416Y-83482365D01*
X84670105Y-83550941D01*
X84667828Y-83618764D01*
X84398874Y-83618764D01*
X84395592Y-83602861D01*
X84416683Y-83446613D01*
X84488751Y-83302618D01*
X84609078Y-83181385D01*
X84625197Y-83171150D01*
X84718795Y-83137847D01*
X84849121Y-83115405D01*
X84999629Y-83104516D01*
X85153773Y-83105871D01*
G37*
X84884060Y-70988447D02*
X84845491Y-71052175D01*
X84754992Y-71107567D01*
X84726017Y-71119131D01*
X84643959Y-71183788D01*
X84602653Y-71271804D01*
X84606367Y-71367637D01*
X84659368Y-71455747D01*
X84692418Y-71486028D01*
X84742280Y-71513489D01*
X84787584Y-71504899D01*
X84834210Y-71455463D01*
X84888042Y-71360389D01*
X84954961Y-71214885D01*
X85085944Y-70915632D01*
X85215702Y-70907691D01*
X85312745Y-70911196D01*
X85435383Y-70955336D01*
X85502966Y-71011050D01*
X85578460Y-71126561D01*
X85616597Y-71263588D01*
X85613578Y-71405237D01*
X85565607Y-71534617D01*
X85547187Y-71563099D01*
X85490189Y-71628428D01*
X85418084Y-71673106D01*
X85320147Y-71700641D01*
X85185649Y-71714541D01*
X85097147Y-71716378D01*
X85003864Y-71718313D01*
X84926054Y-71717744D01*
X84772746Y-71710612D01*
X84660559Y-71691948D01*
X84577446Y-71657537D01*
X84511359Y-71603162D01*
X84456749Y-71532961D01*
X85038908Y-71532961D01*
X85047104Y-71538056D01*
X85097147Y-71540101D01*
X85177586Y-71532812D01*
X85256247Y-71514452D01*
X85355349Y-71457188D01*
X85411192Y-71374524D01*
X85418750Y-71275784D01*
X85373000Y-71170289D01*
X85350124Y-71141053D01*
X85298351Y-71105652D01*
X85247185Y-71120453D01*
X85192558Y-71187797D01*
X85130403Y-71310027D01*
X85121399Y-71330253D01*
X85079507Y-71426970D01*
X85050042Y-71499334D01*
X85038908Y-71532961D01*
X84456749Y-71532961D01*
X84450253Y-71524610D01*
X84422465Y-71474630D01*
X84403749Y-71394513D01*
X84405226Y-71281970D01*
X84411155Y-71219050D01*
X84429258Y-71143153D01*
X84468609Y-71082487D01*
X84541934Y-71011912D01*
X84552644Y-71002482D01*
X84635062Y-70939034D01*
X84706844Y-70908762D01*
X84791966Y-70901034D01*
X84917054Y-70901034D01*
X84884060Y-70988447D01*
G36*
X84884060Y-70988447D02*
G01*
X84845491Y-71052175D01*
X84754992Y-71107567D01*
X84726017Y-71119131D01*
X84643959Y-71183788D01*
X84602653Y-71271804D01*
X84606367Y-71367637D01*
X84659368Y-71455747D01*
X84692418Y-71486028D01*
X84742280Y-71513489D01*
X84787584Y-71504899D01*
X84834210Y-71455463D01*
X84888042Y-71360389D01*
X84954961Y-71214885D01*
X85085944Y-70915632D01*
X85215702Y-70907691D01*
X85312745Y-70911196D01*
X85435383Y-70955336D01*
X85502966Y-71011050D01*
X85578460Y-71126561D01*
X85616597Y-71263588D01*
X85613578Y-71405237D01*
X85565607Y-71534617D01*
X85547187Y-71563099D01*
X85490189Y-71628428D01*
X85418084Y-71673106D01*
X85320147Y-71700641D01*
X85185649Y-71714541D01*
X85097147Y-71716378D01*
X85003864Y-71718313D01*
X84926054Y-71717744D01*
X84772746Y-71710612D01*
X84660559Y-71691948D01*
X84577446Y-71657537D01*
X84511359Y-71603162D01*
X84456749Y-71532961D01*
X85038908Y-71532961D01*
X85047104Y-71538056D01*
X85097147Y-71540101D01*
X85177586Y-71532812D01*
X85256247Y-71514452D01*
X85355349Y-71457188D01*
X85411192Y-71374524D01*
X85418750Y-71275784D01*
X85373000Y-71170289D01*
X85350124Y-71141053D01*
X85298351Y-71105652D01*
X85247185Y-71120453D01*
X85192558Y-71187797D01*
X85130403Y-71310027D01*
X85121399Y-71330253D01*
X85079507Y-71426970D01*
X85050042Y-71499334D01*
X85038908Y-71532961D01*
X84456749Y-71532961D01*
X84450253Y-71524610D01*
X84422465Y-71474630D01*
X84403749Y-71394513D01*
X84405226Y-71281970D01*
X84411155Y-71219050D01*
X84429258Y-71143153D01*
X84468609Y-71082487D01*
X84541934Y-71011912D01*
X84552644Y-71002482D01*
X84635062Y-70939034D01*
X84706844Y-70908762D01*
X84791966Y-70901034D01*
X84917054Y-70901034D01*
X84884060Y-70988447D01*
G37*
X86018181Y-75170862D02*
X86007301Y-75195949D01*
X85982732Y-75235881D01*
X85945525Y-75258739D01*
X85880459Y-75271301D01*
X85772313Y-75280345D01*
X85675212Y-75288605D01*
X85611465Y-75299523D01*
X85587677Y-75315165D01*
X85594057Y-75338736D01*
X85616475Y-75398801D01*
X85622033Y-75506145D01*
X85601272Y-75621624D01*
X85556545Y-75721257D01*
X85515144Y-75776072D01*
X85434368Y-75846452D01*
X85330805Y-75891528D01*
X85193053Y-75915496D01*
X85017894Y-75922239D01*
X85009713Y-75922553D01*
X84895865Y-75920219D01*
X84740680Y-75903739D01*
X84624388Y-75867883D01*
X84535589Y-75808455D01*
X84462881Y-75721257D01*
X84420850Y-75638195D01*
X84397462Y-75498709D01*
X84406210Y-75451060D01*
X84608008Y-75451060D01*
X84613095Y-75552312D01*
X84672638Y-75646614D01*
X84703486Y-75674694D01*
X84744382Y-75698196D01*
X84800920Y-75711322D01*
X84887343Y-75717030D01*
X85017894Y-75718276D01*
X85117513Y-75717661D01*
X85214749Y-75713407D01*
X85277498Y-75702682D01*
X85319618Y-75682707D01*
X85354968Y-75650704D01*
X85370886Y-75631905D01*
X85413765Y-75534492D01*
X85407015Y-75432437D01*
X85350877Y-75343825D01*
X85328618Y-75324749D01*
X85286707Y-75301486D01*
X85228178Y-75288036D01*
X85139120Y-75281841D01*
X85005621Y-75280345D01*
X84899356Y-75281035D01*
X84803238Y-75285400D01*
X84741189Y-75296192D01*
X84699498Y-75316126D01*
X84664457Y-75347916D01*
X84657721Y-75355364D01*
X84608008Y-75451060D01*
X84406210Y-75451060D01*
X84423035Y-75359412D01*
X84494306Y-75233510D01*
X84608009Y-75134210D01*
X84628976Y-75122219D01*
X84665709Y-75106384D01*
X84712585Y-75094638D01*
X84777645Y-75086378D01*
X84868930Y-75080998D01*
X84994481Y-75077892D01*
X85162339Y-75076457D01*
X85380545Y-75076086D01*
X86057928Y-75075977D01*
X86018181Y-75170862D01*
G36*
X86018181Y-75170862D02*
G01*
X86007301Y-75195949D01*
X85982732Y-75235881D01*
X85945525Y-75258739D01*
X85880459Y-75271301D01*
X85772313Y-75280345D01*
X85675212Y-75288605D01*
X85611465Y-75299523D01*
X85587677Y-75315165D01*
X85594057Y-75338736D01*
X85616475Y-75398801D01*
X85622033Y-75506145D01*
X85601272Y-75621624D01*
X85556545Y-75721257D01*
X85515144Y-75776072D01*
X85434368Y-75846452D01*
X85330805Y-75891528D01*
X85193053Y-75915496D01*
X85017894Y-75922239D01*
X85009713Y-75922553D01*
X84895865Y-75920219D01*
X84740680Y-75903739D01*
X84624388Y-75867883D01*
X84535589Y-75808455D01*
X84462881Y-75721257D01*
X84420850Y-75638195D01*
X84397462Y-75498709D01*
X84406210Y-75451060D01*
X84608008Y-75451060D01*
X84613095Y-75552312D01*
X84672638Y-75646614D01*
X84703486Y-75674694D01*
X84744382Y-75698196D01*
X84800920Y-75711322D01*
X84887343Y-75717030D01*
X85017894Y-75718276D01*
X85117513Y-75717661D01*
X85214749Y-75713407D01*
X85277498Y-75702682D01*
X85319618Y-75682707D01*
X85354968Y-75650704D01*
X85370886Y-75631905D01*
X85413765Y-75534492D01*
X85407015Y-75432437D01*
X85350877Y-75343825D01*
X85328618Y-75324749D01*
X85286707Y-75301486D01*
X85228178Y-75288036D01*
X85139120Y-75281841D01*
X85005621Y-75280345D01*
X84899356Y-75281035D01*
X84803238Y-75285400D01*
X84741189Y-75296192D01*
X84699498Y-75316126D01*
X84664457Y-75347916D01*
X84657721Y-75355364D01*
X84608008Y-75451060D01*
X84406210Y-75451060D01*
X84423035Y-75359412D01*
X84494306Y-75233510D01*
X84608009Y-75134210D01*
X84628976Y-75122219D01*
X84665709Y-75106384D01*
X84712585Y-75094638D01*
X84777645Y-75086378D01*
X84868930Y-75080998D01*
X84994481Y-75077892D01*
X85162339Y-75076457D01*
X85380545Y-75076086D01*
X86057928Y-75075977D01*
X86018181Y-75170862D01*
G37*
X84984679Y-80885237D02*
X85009713Y-80901623D01*
X85008191Y-80916179D01*
X84980504Y-80985792D01*
X84929591Y-81064697D01*
X84870657Y-81131820D01*
X84818906Y-81166087D01*
X84748709Y-81201707D01*
X84684862Y-81274711D01*
X84659368Y-81359485D01*
X84666739Y-81390558D01*
X84703846Y-81451891D01*
X84755356Y-81505315D01*
X84802087Y-81528161D01*
X84802260Y-81528154D01*
X84821751Y-81504611D01*
X85141709Y-81504611D01*
X85160497Y-81524521D01*
X85224876Y-81528161D01*
X85304999Y-81513035D01*
X85377811Y-81460597D01*
X85415561Y-81384677D01*
X85411749Y-81300040D01*
X85359879Y-81221447D01*
X85324035Y-81190555D01*
X85296756Y-81183219D01*
X85270735Y-81212970D01*
X85231744Y-81287101D01*
X85230641Y-81289274D01*
X85188991Y-81376733D01*
X85155765Y-81454974D01*
X85141709Y-81504611D01*
X84821751Y-81504611D01*
X84823720Y-81502233D01*
X84862435Y-81433127D01*
X84912963Y-81331249D01*
X84969866Y-81207011D01*
X84970167Y-81206328D01*
X85030262Y-81071355D01*
X85073560Y-80980884D01*
X85106821Y-80926039D01*
X85136806Y-80897944D01*
X85170274Y-80887724D01*
X85213985Y-80886503D01*
X85318735Y-80897251D01*
X85461051Y-80950389D01*
X85572889Y-81039342D01*
X85650324Y-81154448D01*
X85689432Y-81286045D01*
X85686289Y-81424472D01*
X85636970Y-81560065D01*
X85537553Y-81683164D01*
X85439171Y-81751366D01*
X85298739Y-81800356D01*
X85224876Y-81808322D01*
X85121671Y-81819452D01*
X84900361Y-81810168D01*
X84853474Y-81804926D01*
X84686591Y-81765868D01*
X84559674Y-81695290D01*
X84462398Y-81587955D01*
X84458384Y-81581888D01*
X84401294Y-81445440D01*
X84396214Y-81302973D01*
X84439689Y-81165696D01*
X84528266Y-81044819D01*
X84658491Y-80951552D01*
X84661631Y-80949986D01*
X84742499Y-80918993D01*
X84834407Y-80896292D01*
X84920689Y-80884250D01*
X84984679Y-80885237D01*
G36*
X84984679Y-80885237D02*
G01*
X85009713Y-80901623D01*
X85008191Y-80916179D01*
X84980504Y-80985792D01*
X84929591Y-81064697D01*
X84870657Y-81131820D01*
X84818906Y-81166087D01*
X84748709Y-81201707D01*
X84684862Y-81274711D01*
X84659368Y-81359485D01*
X84666739Y-81390558D01*
X84703846Y-81451891D01*
X84755356Y-81505315D01*
X84802087Y-81528161D01*
X84802260Y-81528154D01*
X84821751Y-81504611D01*
X85141709Y-81504611D01*
X85160497Y-81524521D01*
X85224876Y-81528161D01*
X85304999Y-81513035D01*
X85377811Y-81460597D01*
X85415561Y-81384677D01*
X85411749Y-81300040D01*
X85359879Y-81221447D01*
X85324035Y-81190555D01*
X85296756Y-81183219D01*
X85270735Y-81212970D01*
X85231744Y-81287101D01*
X85230641Y-81289274D01*
X85188991Y-81376733D01*
X85155765Y-81454974D01*
X85141709Y-81504611D01*
X84821751Y-81504611D01*
X84823720Y-81502233D01*
X84862435Y-81433127D01*
X84912963Y-81331249D01*
X84969866Y-81207011D01*
X84970167Y-81206328D01*
X85030262Y-81071355D01*
X85073560Y-80980884D01*
X85106821Y-80926039D01*
X85136806Y-80897944D01*
X85170274Y-80887724D01*
X85213985Y-80886503D01*
X85318735Y-80897251D01*
X85461051Y-80950389D01*
X85572889Y-81039342D01*
X85650324Y-81154448D01*
X85689432Y-81286045D01*
X85686289Y-81424472D01*
X85636970Y-81560065D01*
X85537553Y-81683164D01*
X85439171Y-81751366D01*
X85298739Y-81800356D01*
X85224876Y-81808322D01*
X85121671Y-81819452D01*
X84900361Y-81810168D01*
X84853474Y-81804926D01*
X84686591Y-81765868D01*
X84559674Y-81695290D01*
X84462398Y-81587955D01*
X84458384Y-81581888D01*
X84401294Y-81445440D01*
X84396214Y-81302973D01*
X84439689Y-81165696D01*
X84528266Y-81044819D01*
X84658491Y-80951552D01*
X84661631Y-80949986D01*
X84742499Y-80918993D01*
X84834407Y-80896292D01*
X84920689Y-80884250D01*
X84984679Y-80885237D01*
G37*
X84902372Y-77066436D02*
X84929821Y-77067171D01*
X85122483Y-77075555D01*
X85267691Y-77090366D01*
X85375113Y-77114629D01*
X85454416Y-77151364D01*
X85515270Y-77203597D01*
X85567342Y-77274348D01*
X85568158Y-77275657D01*
X85610640Y-77390056D01*
X85617816Y-77522365D01*
X85591326Y-77649995D01*
X85532809Y-77750355D01*
X85487216Y-77794505D01*
X85350928Y-77879347D01*
X85202342Y-77907931D01*
X85100118Y-77907931D01*
X85139628Y-77813963D01*
X85179496Y-77748977D01*
X85262266Y-77697763D01*
X85279331Y-77692504D01*
X85366276Y-77635903D01*
X85413242Y-77550594D01*
X85415259Y-77452641D01*
X85367356Y-77358106D01*
X85355002Y-77343993D01*
X85301317Y-77296797D01*
X85254512Y-77289003D01*
X85208554Y-77324706D01*
X85157412Y-77408003D01*
X85095052Y-77542988D01*
X85091103Y-77552118D01*
X85021228Y-77701969D01*
X84959328Y-77804316D01*
X84897524Y-77867320D01*
X84827938Y-77899138D01*
X84742692Y-77907931D01*
X84648184Y-77896409D01*
X84527215Y-77838228D01*
X84440312Y-77735875D01*
X84414222Y-77661843D01*
X84399945Y-77557367D01*
X84402994Y-77455917D01*
X84424533Y-77383472D01*
X84429896Y-77375777D01*
X84467368Y-77355341D01*
X84533409Y-77369522D01*
X84585247Y-77394161D01*
X84606828Y-77433670D01*
X84605754Y-77508602D01*
X84611945Y-77612630D01*
X84654689Y-77680605D01*
X84733811Y-77703563D01*
X84736084Y-77703542D01*
X84782014Y-77689629D01*
X84824155Y-77642303D01*
X84872728Y-77550287D01*
X84931210Y-77425151D01*
X84963025Y-77342268D01*
X84960975Y-77294420D01*
X84918949Y-77272063D01*
X84830838Y-77265649D01*
X84690531Y-77265632D01*
X84603919Y-77264917D01*
X84496959Y-77261635D01*
X84423750Y-77256300D01*
X84396609Y-77249585D01*
X84396794Y-77247790D01*
X84411502Y-77208982D01*
X84442544Y-77144709D01*
X84488479Y-77055880D01*
X84902372Y-77066436D01*
G36*
X84902372Y-77066436D02*
G01*
X84929821Y-77067171D01*
X85122483Y-77075555D01*
X85267691Y-77090366D01*
X85375113Y-77114629D01*
X85454416Y-77151364D01*
X85515270Y-77203597D01*
X85567342Y-77274348D01*
X85568158Y-77275657D01*
X85610640Y-77390056D01*
X85617816Y-77522365D01*
X85591326Y-77649995D01*
X85532809Y-77750355D01*
X85487216Y-77794505D01*
X85350928Y-77879347D01*
X85202342Y-77907931D01*
X85100118Y-77907931D01*
X85139628Y-77813963D01*
X85179496Y-77748977D01*
X85262266Y-77697763D01*
X85279331Y-77692504D01*
X85366276Y-77635903D01*
X85413242Y-77550594D01*
X85415259Y-77452641D01*
X85367356Y-77358106D01*
X85355002Y-77343993D01*
X85301317Y-77296797D01*
X85254512Y-77289003D01*
X85208554Y-77324706D01*
X85157412Y-77408003D01*
X85095052Y-77542988D01*
X85091103Y-77552118D01*
X85021228Y-77701969D01*
X84959328Y-77804316D01*
X84897524Y-77867320D01*
X84827938Y-77899138D01*
X84742692Y-77907931D01*
X84648184Y-77896409D01*
X84527215Y-77838228D01*
X84440312Y-77735875D01*
X84414222Y-77661843D01*
X84399945Y-77557367D01*
X84402994Y-77455917D01*
X84424533Y-77383472D01*
X84429896Y-77375777D01*
X84467368Y-77355341D01*
X84533409Y-77369522D01*
X84585247Y-77394161D01*
X84606828Y-77433670D01*
X84605754Y-77508602D01*
X84611945Y-77612630D01*
X84654689Y-77680605D01*
X84733811Y-77703563D01*
X84736084Y-77703542D01*
X84782014Y-77689629D01*
X84824155Y-77642303D01*
X84872728Y-77550287D01*
X84931210Y-77425151D01*
X84963025Y-77342268D01*
X84960975Y-77294420D01*
X84918949Y-77272063D01*
X84830838Y-77265649D01*
X84690531Y-77265632D01*
X84603919Y-77264917D01*
X84496959Y-77261635D01*
X84423750Y-77256300D01*
X84396609Y-77249585D01*
X84396794Y-77247790D01*
X84411502Y-77208982D01*
X84442544Y-77144709D01*
X84488479Y-77055880D01*
X84902372Y-77066436D01*
G37*
X85197878Y-81996371D02*
X85301636Y-82001307D01*
X85373588Y-82012272D01*
X85427500Y-82031438D01*
X85477136Y-82060977D01*
X85515069Y-82088092D01*
X85617478Y-82186550D01*
X85673097Y-82298100D01*
X85690703Y-82438246D01*
X85673153Y-82598635D01*
X85610203Y-82737288D01*
X85499176Y-82846951D01*
X85487422Y-82855218D01*
X85456187Y-82874499D01*
X85420493Y-82889269D01*
X85372636Y-82900254D01*
X85304913Y-82908174D01*
X85209618Y-82913753D01*
X85079048Y-82917713D01*
X85052179Y-82918188D01*
X84905498Y-82920778D01*
X84681264Y-82923668D01*
X84616215Y-82924471D01*
X84398740Y-82927040D01*
X84232328Y-82927556D01*
X84111154Y-82924437D01*
X84029393Y-82916100D01*
X83981219Y-82900962D01*
X83960806Y-82877441D01*
X83962328Y-82843956D01*
X83979961Y-82798923D01*
X84007879Y-82740761D01*
X84013836Y-82728332D01*
X84042994Y-82676578D01*
X84077686Y-82649550D01*
X84135530Y-82639207D01*
X84234143Y-82637509D01*
X84411207Y-82637433D01*
X84411207Y-82455038D01*
X84412796Y-82418753D01*
X84667280Y-82418753D01*
X84672079Y-82487865D01*
X84731029Y-82565925D01*
X84751177Y-82585019D01*
X84792485Y-82613142D01*
X84846213Y-82629000D01*
X84927674Y-82636009D01*
X85052179Y-82637586D01*
X85127555Y-82636220D01*
X85264638Y-82621402D01*
X85354452Y-82587579D01*
X85403540Y-82531389D01*
X85418448Y-82449472D01*
X85415271Y-82414956D01*
X85383746Y-82355235D01*
X85313495Y-82315752D01*
X85198417Y-82293942D01*
X85032412Y-82287241D01*
X85005724Y-82287291D01*
X84885262Y-82290064D01*
X84806516Y-82298967D01*
X84755382Y-82316617D01*
X84717759Y-82345632D01*
X84715962Y-82347440D01*
X84667280Y-82418753D01*
X84412796Y-82418753D01*
X84416120Y-82342840D01*
X84436047Y-82254620D01*
X84476322Y-82181358D01*
X84480259Y-82175896D01*
X84546757Y-82101558D01*
X84627092Y-82049823D01*
X84732242Y-82017196D01*
X84873185Y-82000182D01*
X85060899Y-81995287D01*
X85197878Y-81996371D01*
G36*
X85197878Y-81996371D02*
G01*
X85301636Y-82001307D01*
X85373588Y-82012272D01*
X85427500Y-82031438D01*
X85477136Y-82060977D01*
X85515069Y-82088092D01*
X85617478Y-82186550D01*
X85673097Y-82298100D01*
X85690703Y-82438246D01*
X85673153Y-82598635D01*
X85610203Y-82737288D01*
X85499176Y-82846951D01*
X85487422Y-82855218D01*
X85456187Y-82874499D01*
X85420493Y-82889269D01*
X85372636Y-82900254D01*
X85304913Y-82908174D01*
X85209618Y-82913753D01*
X85079048Y-82917713D01*
X85052179Y-82918188D01*
X84905498Y-82920778D01*
X84681264Y-82923668D01*
X84616215Y-82924471D01*
X84398740Y-82927040D01*
X84232328Y-82927556D01*
X84111154Y-82924437D01*
X84029393Y-82916100D01*
X83981219Y-82900962D01*
X83960806Y-82877441D01*
X83962328Y-82843956D01*
X83979961Y-82798923D01*
X84007879Y-82740761D01*
X84013836Y-82728332D01*
X84042994Y-82676578D01*
X84077686Y-82649550D01*
X84135530Y-82639207D01*
X84234143Y-82637509D01*
X84411207Y-82637433D01*
X84411207Y-82455038D01*
X84412796Y-82418753D01*
X84667280Y-82418753D01*
X84672079Y-82487865D01*
X84731029Y-82565925D01*
X84751177Y-82585019D01*
X84792485Y-82613142D01*
X84846213Y-82629000D01*
X84927674Y-82636009D01*
X85052179Y-82637586D01*
X85127555Y-82636220D01*
X85264638Y-82621402D01*
X85354452Y-82587579D01*
X85403540Y-82531389D01*
X85418448Y-82449472D01*
X85415271Y-82414956D01*
X85383746Y-82355235D01*
X85313495Y-82315752D01*
X85198417Y-82293942D01*
X85032412Y-82287241D01*
X85005724Y-82287291D01*
X84885262Y-82290064D01*
X84806516Y-82298967D01*
X84755382Y-82316617D01*
X84717759Y-82345632D01*
X84715962Y-82347440D01*
X84667280Y-82418753D01*
X84412796Y-82418753D01*
X84416120Y-82342840D01*
X84436047Y-82254620D01*
X84476322Y-82181358D01*
X84480259Y-82175896D01*
X84546757Y-82101558D01*
X84627092Y-82049823D01*
X84732242Y-82017196D01*
X84873185Y-82000182D01*
X85060899Y-81995287D01*
X85197878Y-81996371D01*
G37*
X85010492Y-72886797D02*
X85179699Y-72891293D01*
X85305231Y-72902747D01*
X85396637Y-72923828D01*
X85463468Y-72957206D01*
X85515274Y-73005550D01*
X85561607Y-73071531D01*
X85599844Y-73155594D01*
X85622816Y-73310807D01*
X85620190Y-73381628D01*
X85604298Y-73444194D01*
X85564678Y-73502446D01*
X85490924Y-73577418D01*
X85438837Y-73625633D01*
X85371214Y-73675858D01*
X85307832Y-73698510D01*
X85227416Y-73703793D01*
X85095799Y-73703793D01*
X85142215Y-73614035D01*
X85198775Y-73542904D01*
X85274960Y-73494183D01*
X85295674Y-73485814D01*
X85375959Y-73422056D01*
X85416216Y-73333470D01*
X85412298Y-73236873D01*
X85360057Y-73149080D01*
X85317630Y-73111936D01*
X85263353Y-73090300D01*
X85215046Y-73113461D01*
X85166455Y-73185479D01*
X85111323Y-73310410D01*
X85103708Y-73329368D01*
X85053875Y-73443105D01*
X85004735Y-73540706D01*
X84965920Y-73602803D01*
X84896589Y-73664999D01*
X84785949Y-73706346D01*
X84667218Y-73701957D01*
X84554852Y-73653037D01*
X84463310Y-73560797D01*
X84424342Y-73486110D01*
X84397056Y-73341832D01*
X84400737Y-73261656D01*
X84420640Y-73187435D01*
X84462402Y-73158960D01*
X84531180Y-73169608D01*
X84540274Y-73172705D01*
X84588502Y-73197268D01*
X84606755Y-73238165D01*
X84605534Y-73316079D01*
X84603874Y-73371091D01*
X84618119Y-73435459D01*
X84660708Y-73479561D01*
X84713143Y-73504680D01*
X84768071Y-73507481D01*
X84768392Y-73507352D01*
X84798072Y-73474785D01*
X84841265Y-73405083D01*
X84889539Y-73314898D01*
X84934461Y-73220883D01*
X84967598Y-73139689D01*
X84980517Y-73087968D01*
X84967866Y-73080274D01*
X84908332Y-73070588D01*
X84811113Y-73063954D01*
X84688563Y-73061494D01*
X84603737Y-73060922D01*
X84496906Y-73058225D01*
X84423743Y-73053821D01*
X84396609Y-73048270D01*
X84405728Y-73019254D01*
X84430491Y-72960684D01*
X84464373Y-72886322D01*
X84899067Y-72886322D01*
X85010492Y-72886797D01*
G36*
X85010492Y-72886797D02*
G01*
X85179699Y-72891293D01*
X85305231Y-72902747D01*
X85396637Y-72923828D01*
X85463468Y-72957206D01*
X85515274Y-73005550D01*
X85561607Y-73071531D01*
X85599844Y-73155594D01*
X85622816Y-73310807D01*
X85620190Y-73381628D01*
X85604298Y-73444194D01*
X85564678Y-73502446D01*
X85490924Y-73577418D01*
X85438837Y-73625633D01*
X85371214Y-73675858D01*
X85307832Y-73698510D01*
X85227416Y-73703793D01*
X85095799Y-73703793D01*
X85142215Y-73614035D01*
X85198775Y-73542904D01*
X85274960Y-73494183D01*
X85295674Y-73485814D01*
X85375959Y-73422056D01*
X85416216Y-73333470D01*
X85412298Y-73236873D01*
X85360057Y-73149080D01*
X85317630Y-73111936D01*
X85263353Y-73090300D01*
X85215046Y-73113461D01*
X85166455Y-73185479D01*
X85111323Y-73310410D01*
X85103708Y-73329368D01*
X85053875Y-73443105D01*
X85004735Y-73540706D01*
X84965920Y-73602803D01*
X84896589Y-73664999D01*
X84785949Y-73706346D01*
X84667218Y-73701957D01*
X84554852Y-73653037D01*
X84463310Y-73560797D01*
X84424342Y-73486110D01*
X84397056Y-73341832D01*
X84400737Y-73261656D01*
X84420640Y-73187435D01*
X84462402Y-73158960D01*
X84531180Y-73169608D01*
X84540274Y-73172705D01*
X84588502Y-73197268D01*
X84606755Y-73238165D01*
X84605534Y-73316079D01*
X84603874Y-73371091D01*
X84618119Y-73435459D01*
X84660708Y-73479561D01*
X84713143Y-73504680D01*
X84768071Y-73507481D01*
X84768392Y-73507352D01*
X84798072Y-73474785D01*
X84841265Y-73405083D01*
X84889539Y-73314898D01*
X84934461Y-73220883D01*
X84967598Y-73139689D01*
X84980517Y-73087968D01*
X84967866Y-73080274D01*
X84908332Y-73070588D01*
X84811113Y-73063954D01*
X84688563Y-73061494D01*
X84603737Y-73060922D01*
X84496906Y-73058225D01*
X84423743Y-73053821D01*
X84396609Y-73048270D01*
X84405728Y-73019254D01*
X84430491Y-72960684D01*
X84464373Y-72886322D01*
X84899067Y-72886322D01*
X85010492Y-72886797D01*
G37*
X90547835Y-72857160D02*
X90739297Y-72857808D01*
X90882188Y-72859720D01*
X90983811Y-72863469D01*
X91051469Y-72869622D01*
X91092464Y-72878751D01*
X91114100Y-72891427D01*
X91123680Y-72908218D01*
X91127561Y-72924474D01*
X91141290Y-72990748D01*
X91162255Y-73096479D01*
X91188412Y-73230915D01*
X91217717Y-73383302D01*
X91248123Y-73542890D01*
X91277587Y-73698925D01*
X91304063Y-73840657D01*
X91325506Y-73957331D01*
X91339872Y-74038197D01*
X91345115Y-74072503D01*
X91348280Y-74074822D01*
X91389358Y-74093474D01*
X91467956Y-74125753D01*
X91571379Y-74166391D01*
X91710727Y-74222788D01*
X91871774Y-74292214D01*
X92013709Y-74357288D01*
X92045568Y-74372202D01*
X92145331Y-74414047D01*
X92222279Y-74439118D01*
X92261870Y-74442426D01*
X92264675Y-74440720D01*
X92305995Y-74413631D01*
X92386260Y-74359927D01*
X92497650Y-74284877D01*
X92632345Y-74193746D01*
X92782524Y-74091800D01*
X92953149Y-73976930D01*
X93085689Y-73890761D01*
X93182888Y-73832131D01*
X93250766Y-73797650D01*
X93295344Y-73783926D01*
X93322639Y-73787568D01*
X93324687Y-73788794D01*
X93364464Y-73821747D01*
X93436948Y-73888927D01*
X93534954Y-73983419D01*
X93651298Y-74098306D01*
X93778795Y-74226672D01*
X93908179Y-74359831D01*
X94029791Y-74490269D01*
X94111844Y-74586119D01*
X94156440Y-74649866D01*
X94165683Y-74683996D01*
X94163607Y-74688456D01*
X94135615Y-74735421D01*
X94080916Y-74820685D01*
X94004763Y-74936259D01*
X93912408Y-75074154D01*
X93809103Y-75226381D01*
X93470235Y-75722610D01*
X93571944Y-75946707D01*
X93574891Y-75953219D01*
X93634496Y-76090804D01*
X93693778Y-76236767D01*
X93740315Y-76360575D01*
X93740507Y-76361122D01*
X93776503Y-76459414D01*
X93806905Y-76535081D01*
X93825148Y-76571780D01*
X93825810Y-76572374D01*
X93863169Y-76584833D01*
X93948129Y-76605336D01*
X94071531Y-76631907D01*
X94224218Y-76662567D01*
X94397033Y-76695336D01*
X94403226Y-76696478D01*
X94579569Y-76729193D01*
X94739257Y-76759155D01*
X94872095Y-76784425D01*
X94967887Y-76803065D01*
X95016437Y-76813135D01*
X95019127Y-76813779D01*
X95039912Y-76820408D01*
X95055534Y-76833841D01*
X95066730Y-76861446D01*
X95074238Y-76910593D01*
X95078795Y-76988653D01*
X95081137Y-77102994D01*
X95082002Y-77260986D01*
X95082126Y-77470000D01*
X95082126Y-77496262D01*
X95081955Y-77699175D01*
X95080961Y-77851895D01*
X95078407Y-77961792D01*
X95073555Y-78036235D01*
X95065669Y-78082594D01*
X95054012Y-78108239D01*
X95037847Y-78120539D01*
X95016437Y-78126865D01*
X95015668Y-78127047D01*
X94965337Y-78137441D01*
X94868112Y-78156339D01*
X94734190Y-78181802D01*
X94573765Y-78211890D01*
X94397033Y-78244664D01*
X94382572Y-78247337D01*
X94211041Y-78280010D01*
X94060375Y-78310413D01*
X93939733Y-78336568D01*
X93858271Y-78356496D01*
X93825148Y-78368220D01*
X93825095Y-78368282D01*
X93806771Y-78405229D01*
X93776323Y-78481057D01*
X93740315Y-78579425D01*
X93738360Y-78584965D01*
X93690830Y-78710724D01*
X93631217Y-78857011D01*
X93571944Y-78993293D01*
X93470235Y-79217390D01*
X93809103Y-79713618D01*
X93832937Y-79748570D01*
X93934245Y-79898280D01*
X94023425Y-80031867D01*
X94095227Y-80141343D01*
X94144397Y-80218718D01*
X94165683Y-80256004D01*
X94160804Y-80281552D01*
X94122998Y-80339555D01*
X94048130Y-80429195D01*
X93934097Y-80552957D01*
X93778795Y-80713328D01*
X93764659Y-80727679D01*
X93638001Y-80854933D01*
X93523255Y-80967969D01*
X93427609Y-81059867D01*
X93358254Y-81123707D01*
X93322380Y-81152570D01*
X93322206Y-81152664D01*
X93294894Y-81156331D01*
X93250592Y-81142808D01*
X93183239Y-81108684D01*
X93086774Y-81050548D01*
X92955137Y-80964988D01*
X92782266Y-80848594D01*
X92753088Y-80828759D01*
X92605274Y-80728445D01*
X92474423Y-80639923D01*
X92368357Y-80568465D01*
X92294898Y-80519343D01*
X92261870Y-80497831D01*
X92254874Y-80496208D01*
X92202674Y-80506387D01*
X92117439Y-80536879D01*
X92013709Y-80582712D01*
X91878049Y-80645000D01*
X91717079Y-80714548D01*
X91571379Y-80773609D01*
X91533667Y-80788252D01*
X91437378Y-80826600D01*
X91370296Y-80854770D01*
X91345115Y-80867497D01*
X91343233Y-80881545D01*
X91332349Y-80944681D01*
X91313551Y-81048019D01*
X91288885Y-81180809D01*
X91260396Y-81332297D01*
X91230127Y-81491732D01*
X91200125Y-81648361D01*
X91172434Y-81791433D01*
X91149100Y-81910195D01*
X91132167Y-81993896D01*
X91123680Y-82031782D01*
X91121287Y-82038063D01*
X91108381Y-82053373D01*
X91080904Y-82064763D01*
X91031554Y-82072803D01*
X90953027Y-82078064D01*
X90838020Y-82081116D01*
X90679230Y-82082529D01*
X90469355Y-82082873D01*
X89831094Y-82082873D01*
X89800840Y-81929598D01*
X89797215Y-81911057D01*
X89778431Y-81812596D01*
X89752907Y-81676448D01*
X89723532Y-81518087D01*
X89693194Y-81352988D01*
X89680991Y-81287973D01*
X89651303Y-81142697D01*
X89623230Y-81021626D01*
X89599464Y-80935886D01*
X89582699Y-80896601D01*
X89555306Y-80878799D01*
X89482826Y-80846389D01*
X89389023Y-80813234D01*
X89353897Y-80801564D01*
X89238591Y-80758604D01*
X89102124Y-80703192D01*
X88967046Y-80644353D01*
X88896491Y-80612884D01*
X88791105Y-80568051D01*
X88712182Y-80537240D01*
X88672947Y-80525785D01*
X88669986Y-80526422D01*
X88628361Y-80548150D01*
X88548031Y-80597146D01*
X88436780Y-80668438D01*
X88302395Y-80757054D01*
X88152660Y-80858023D01*
X87665069Y-81190261D01*
X87227851Y-80753771D01*
X87185779Y-80711555D01*
X87059847Y-80582470D01*
X86951246Y-80467107D01*
X86866097Y-80372224D01*
X86810518Y-80304582D01*
X86790632Y-80270938D01*
X86805762Y-80234402D01*
X86849199Y-80157890D01*
X86915730Y-80050196D01*
X87000133Y-79919767D01*
X87097184Y-79775052D01*
X87193036Y-79632910D01*
X87277443Y-79504678D01*
X87344150Y-79400054D01*
X87387976Y-79327171D01*
X87403736Y-79294158D01*
X87403592Y-79292223D01*
X87388055Y-79248369D01*
X87351879Y-79170598D01*
X87302215Y-79074392D01*
X87301671Y-79073381D01*
X87237674Y-78945605D01*
X87206409Y-78858051D01*
X87206323Y-78803726D01*
X87235862Y-78775641D01*
X87264939Y-78763752D01*
X87342812Y-78731668D01*
X87462525Y-78682247D01*
X87617714Y-78618118D01*
X87802016Y-78541911D01*
X88009067Y-78456255D01*
X88232504Y-78363781D01*
X88435774Y-78279962D01*
X88644351Y-78194678D01*
X88830737Y-78119222D01*
X88988593Y-78056126D01*
X89111581Y-78007923D01*
X89193361Y-77977144D01*
X89227594Y-77966322D01*
X89258985Y-77986991D01*
X89311398Y-78044409D01*
X89372296Y-78125688D01*
X89531613Y-78320820D01*
X89735193Y-78495445D01*
X89959192Y-78623235D01*
X90196997Y-78703402D01*
X90441993Y-78735160D01*
X90687567Y-78717722D01*
X90927105Y-78650301D01*
X91153993Y-78532111D01*
X91361617Y-78362364D01*
X91442473Y-78273856D01*
X91585441Y-78061804D01*
X91678648Y-77834905D01*
X91724313Y-77599791D01*
X91724656Y-77363094D01*
X91681895Y-77131446D01*
X91598250Y-76911478D01*
X91475939Y-76709822D01*
X91317183Y-76533111D01*
X91124199Y-76387977D01*
X90899207Y-76281050D01*
X90644425Y-76218964D01*
X90521623Y-76207569D01*
X90255566Y-76223246D01*
X90003144Y-76293846D01*
X89768818Y-76417282D01*
X89557048Y-76591466D01*
X89372296Y-76814311D01*
X89313877Y-76892561D01*
X89260890Y-76951244D01*
X89227644Y-76973678D01*
X89198661Y-76964732D01*
X89121004Y-76935703D01*
X89001549Y-76889026D01*
X88846638Y-76827231D01*
X88662608Y-76752850D01*
X88455800Y-76668412D01*
X88232554Y-76576449D01*
X88030258Y-76492771D01*
X87821314Y-76406366D01*
X87634502Y-76329138D01*
X87476186Y-76263716D01*
X87352731Y-76212731D01*
X87270502Y-76178812D01*
X87235862Y-76164590D01*
X87235452Y-76164425D01*
X87206202Y-76135972D01*
X87206537Y-76081382D01*
X87238020Y-75993609D01*
X87302215Y-75865608D01*
X87307620Y-75855532D01*
X87356250Y-75760481D01*
X87390672Y-75685424D01*
X87403736Y-75645842D01*
X87388298Y-75613400D01*
X87344742Y-75540895D01*
X87278249Y-75436565D01*
X87194002Y-75308539D01*
X87097184Y-75164948D01*
X87002266Y-75023468D01*
X86917510Y-74892611D01*
X86850504Y-74784292D01*
X86806471Y-74706960D01*
X86790632Y-74669062D01*
X86792643Y-74662607D01*
X86824342Y-74617609D01*
X86889819Y-74540727D01*
X86982952Y-74438721D01*
X87097619Y-74318351D01*
X87227700Y-74186379D01*
X87664768Y-73750039D01*
X88664560Y-74429733D01*
X88888114Y-74326402D01*
X88888775Y-74326096D01*
X89031286Y-74264046D01*
X89189982Y-74200640D01*
X89330632Y-74149558D01*
X89353317Y-74141827D01*
X89458630Y-74102852D01*
X89540466Y-74067707D01*
X89582699Y-74043195D01*
X89588663Y-74033212D01*
X89608671Y-73973286D01*
X89634558Y-73871532D01*
X89663630Y-73739068D01*
X89693194Y-73587011D01*
X89701533Y-73541466D01*
X89731893Y-73376685D01*
X89760491Y-73222930D01*
X89784436Y-73095678D01*
X89800840Y-73010402D01*
X89831094Y-72857126D01*
X90469355Y-72857126D01*
X90547835Y-72857160D01*
G36*
X90547835Y-72857160D02*
G01*
X90739297Y-72857808D01*
X90882188Y-72859720D01*
X90983811Y-72863469D01*
X91051469Y-72869622D01*
X91092464Y-72878751D01*
X91114100Y-72891427D01*
X91123680Y-72908218D01*
X91127561Y-72924474D01*
X91141290Y-72990748D01*
X91162255Y-73096479D01*
X91188412Y-73230915D01*
X91217717Y-73383302D01*
X91248123Y-73542890D01*
X91277587Y-73698925D01*
X91304063Y-73840657D01*
X91325506Y-73957331D01*
X91339872Y-74038197D01*
X91345115Y-74072503D01*
X91348280Y-74074822D01*
X91389358Y-74093474D01*
X91467956Y-74125753D01*
X91571379Y-74166391D01*
X91710727Y-74222788D01*
X91871774Y-74292214D01*
X92013709Y-74357288D01*
X92045568Y-74372202D01*
X92145331Y-74414047D01*
X92222279Y-74439118D01*
X92261870Y-74442426D01*
X92264675Y-74440720D01*
X92305995Y-74413631D01*
X92386260Y-74359927D01*
X92497650Y-74284877D01*
X92632345Y-74193746D01*
X92782524Y-74091800D01*
X92953149Y-73976930D01*
X93085689Y-73890761D01*
X93182888Y-73832131D01*
X93250766Y-73797650D01*
X93295344Y-73783926D01*
X93322639Y-73787568D01*
X93324687Y-73788794D01*
X93364464Y-73821747D01*
X93436948Y-73888927D01*
X93534954Y-73983419D01*
X93651298Y-74098306D01*
X93778795Y-74226672D01*
X93908179Y-74359831D01*
X94029791Y-74490269D01*
X94111844Y-74586119D01*
X94156440Y-74649866D01*
X94165683Y-74683996D01*
X94163607Y-74688456D01*
X94135615Y-74735421D01*
X94080916Y-74820685D01*
X94004763Y-74936259D01*
X93912408Y-75074154D01*
X93809103Y-75226381D01*
X93470235Y-75722610D01*
X93571944Y-75946707D01*
X93574891Y-75953219D01*
X93634496Y-76090804D01*
X93693778Y-76236767D01*
X93740315Y-76360575D01*
X93740507Y-76361122D01*
X93776503Y-76459414D01*
X93806905Y-76535081D01*
X93825148Y-76571780D01*
X93825810Y-76572374D01*
X93863169Y-76584833D01*
X93948129Y-76605336D01*
X94071531Y-76631907D01*
X94224218Y-76662567D01*
X94397033Y-76695336D01*
X94403226Y-76696478D01*
X94579569Y-76729193D01*
X94739257Y-76759155D01*
X94872095Y-76784425D01*
X94967887Y-76803065D01*
X95016437Y-76813135D01*
X95019127Y-76813779D01*
X95039912Y-76820408D01*
X95055534Y-76833841D01*
X95066730Y-76861446D01*
X95074238Y-76910593D01*
X95078795Y-76988653D01*
X95081137Y-77102994D01*
X95082002Y-77260986D01*
X95082126Y-77470000D01*
X95082126Y-77496262D01*
X95081955Y-77699175D01*
X95080961Y-77851895D01*
X95078407Y-77961792D01*
X95073555Y-78036235D01*
X95065669Y-78082594D01*
X95054012Y-78108239D01*
X95037847Y-78120539D01*
X95016437Y-78126865D01*
X95015668Y-78127047D01*
X94965337Y-78137441D01*
X94868112Y-78156339D01*
X94734190Y-78181802D01*
X94573765Y-78211890D01*
X94397033Y-78244664D01*
X94382572Y-78247337D01*
X94211041Y-78280010D01*
X94060375Y-78310413D01*
X93939733Y-78336568D01*
X93858271Y-78356496D01*
X93825148Y-78368220D01*
X93825095Y-78368282D01*
X93806771Y-78405229D01*
X93776323Y-78481057D01*
X93740315Y-78579425D01*
X93738360Y-78584965D01*
X93690830Y-78710724D01*
X93631217Y-78857011D01*
X93571944Y-78993293D01*
X93470235Y-79217390D01*
X93809103Y-79713618D01*
X93832937Y-79748570D01*
X93934245Y-79898280D01*
X94023425Y-80031867D01*
X94095227Y-80141343D01*
X94144397Y-80218718D01*
X94165683Y-80256004D01*
X94160804Y-80281552D01*
X94122998Y-80339555D01*
X94048130Y-80429195D01*
X93934097Y-80552957D01*
X93778795Y-80713328D01*
X93764659Y-80727679D01*
X93638001Y-80854933D01*
X93523255Y-80967969D01*
X93427609Y-81059867D01*
X93358254Y-81123707D01*
X93322380Y-81152570D01*
X93322206Y-81152664D01*
X93294894Y-81156331D01*
X93250592Y-81142808D01*
X93183239Y-81108684D01*
X93086774Y-81050548D01*
X92955137Y-80964988D01*
X92782266Y-80848594D01*
X92753088Y-80828759D01*
X92605274Y-80728445D01*
X92474423Y-80639923D01*
X92368357Y-80568465D01*
X92294898Y-80519343D01*
X92261870Y-80497831D01*
X92254874Y-80496208D01*
X92202674Y-80506387D01*
X92117439Y-80536879D01*
X92013709Y-80582712D01*
X91878049Y-80645000D01*
X91717079Y-80714548D01*
X91571379Y-80773609D01*
X91533667Y-80788252D01*
X91437378Y-80826600D01*
X91370296Y-80854770D01*
X91345115Y-80867497D01*
X91343233Y-80881545D01*
X91332349Y-80944681D01*
X91313551Y-81048019D01*
X91288885Y-81180809D01*
X91260396Y-81332297D01*
X91230127Y-81491732D01*
X91200125Y-81648361D01*
X91172434Y-81791433D01*
X91149100Y-81910195D01*
X91132167Y-81993896D01*
X91123680Y-82031782D01*
X91121287Y-82038063D01*
X91108381Y-82053373D01*
X91080904Y-82064763D01*
X91031554Y-82072803D01*
X90953027Y-82078064D01*
X90838020Y-82081116D01*
X90679230Y-82082529D01*
X90469355Y-82082873D01*
X89831094Y-82082873D01*
X89800840Y-81929598D01*
X89797215Y-81911057D01*
X89778431Y-81812596D01*
X89752907Y-81676448D01*
X89723532Y-81518087D01*
X89693194Y-81352988D01*
X89680991Y-81287973D01*
X89651303Y-81142697D01*
X89623230Y-81021626D01*
X89599464Y-80935886D01*
X89582699Y-80896601D01*
X89555306Y-80878799D01*
X89482826Y-80846389D01*
X89389023Y-80813234D01*
X89353897Y-80801564D01*
X89238591Y-80758604D01*
X89102124Y-80703192D01*
X88967046Y-80644353D01*
X88896491Y-80612884D01*
X88791105Y-80568051D01*
X88712182Y-80537240D01*
X88672947Y-80525785D01*
X88669986Y-80526422D01*
X88628361Y-80548150D01*
X88548031Y-80597146D01*
X88436780Y-80668438D01*
X88302395Y-80757054D01*
X88152660Y-80858023D01*
X87665069Y-81190261D01*
X87227851Y-80753771D01*
X87185779Y-80711555D01*
X87059847Y-80582470D01*
X86951246Y-80467107D01*
X86866097Y-80372224D01*
X86810518Y-80304582D01*
X86790632Y-80270938D01*
X86805762Y-80234402D01*
X86849199Y-80157890D01*
X86915730Y-80050196D01*
X87000133Y-79919767D01*
X87097184Y-79775052D01*
X87193036Y-79632910D01*
X87277443Y-79504678D01*
X87344150Y-79400054D01*
X87387976Y-79327171D01*
X87403736Y-79294158D01*
X87403592Y-79292223D01*
X87388055Y-79248369D01*
X87351879Y-79170598D01*
X87302215Y-79074392D01*
X87301671Y-79073381D01*
X87237674Y-78945605D01*
X87206409Y-78858051D01*
X87206323Y-78803726D01*
X87235862Y-78775641D01*
X87264939Y-78763752D01*
X87342812Y-78731668D01*
X87462525Y-78682247D01*
X87617714Y-78618118D01*
X87802016Y-78541911D01*
X88009067Y-78456255D01*
X88232504Y-78363781D01*
X88435774Y-78279962D01*
X88644351Y-78194678D01*
X88830737Y-78119222D01*
X88988593Y-78056126D01*
X89111581Y-78007923D01*
X89193361Y-77977144D01*
X89227594Y-77966322D01*
X89258985Y-77986991D01*
X89311398Y-78044409D01*
X89372296Y-78125688D01*
X89531613Y-78320820D01*
X89735193Y-78495445D01*
X89959192Y-78623235D01*
X90196997Y-78703402D01*
X90441993Y-78735160D01*
X90687567Y-78717722D01*
X90927105Y-78650301D01*
X91153993Y-78532111D01*
X91361617Y-78362364D01*
X91442473Y-78273856D01*
X91585441Y-78061804D01*
X91678648Y-77834905D01*
X91724313Y-77599791D01*
X91724656Y-77363094D01*
X91681895Y-77131446D01*
X91598250Y-76911478D01*
X91475939Y-76709822D01*
X91317183Y-76533111D01*
X91124199Y-76387977D01*
X90899207Y-76281050D01*
X90644425Y-76218964D01*
X90521623Y-76207569D01*
X90255566Y-76223246D01*
X90003144Y-76293846D01*
X89768818Y-76417282D01*
X89557048Y-76591466D01*
X89372296Y-76814311D01*
X89313877Y-76892561D01*
X89260890Y-76951244D01*
X89227644Y-76973678D01*
X89198661Y-76964732D01*
X89121004Y-76935703D01*
X89001549Y-76889026D01*
X88846638Y-76827231D01*
X88662608Y-76752850D01*
X88455800Y-76668412D01*
X88232554Y-76576449D01*
X88030258Y-76492771D01*
X87821314Y-76406366D01*
X87634502Y-76329138D01*
X87476186Y-76263716D01*
X87352731Y-76212731D01*
X87270502Y-76178812D01*
X87235862Y-76164590D01*
X87235452Y-76164425D01*
X87206202Y-76135972D01*
X87206537Y-76081382D01*
X87238020Y-75993609D01*
X87302215Y-75865608D01*
X87307620Y-75855532D01*
X87356250Y-75760481D01*
X87390672Y-75685424D01*
X87403736Y-75645842D01*
X87388298Y-75613400D01*
X87344742Y-75540895D01*
X87278249Y-75436565D01*
X87194002Y-75308539D01*
X87097184Y-75164948D01*
X87002266Y-75023468D01*
X86917510Y-74892611D01*
X86850504Y-74784292D01*
X86806471Y-74706960D01*
X86790632Y-74669062D01*
X86792643Y-74662607D01*
X86824342Y-74617609D01*
X86889819Y-74540727D01*
X86982952Y-74438721D01*
X87097619Y-74318351D01*
X87227700Y-74186379D01*
X87664768Y-73750039D01*
X88664560Y-74429733D01*
X88888114Y-74326402D01*
X88888775Y-74326096D01*
X89031286Y-74264046D01*
X89189982Y-74200640D01*
X89330632Y-74149558D01*
X89353317Y-74141827D01*
X89458630Y-74102852D01*
X89540466Y-74067707D01*
X89582699Y-74043195D01*
X89588663Y-74033212D01*
X89608671Y-73973286D01*
X89634558Y-73871532D01*
X89663630Y-73739068D01*
X89693194Y-73587011D01*
X89701533Y-73541466D01*
X89731893Y-73376685D01*
X89760491Y-73222930D01*
X89784436Y-73095678D01*
X89800840Y-73010402D01*
X89831094Y-72857126D01*
X90469355Y-72857126D01*
X90547835Y-72857160D01*
G37*
%TD*%
D12*
X76200000Y-134620000D02*
X127000000Y-134620000D01*
X127000000Y-43180000D02*
X76200000Y-43180000D01*
X68580000Y-50800000D02*
X68580000Y-127000000D01*
X134620000Y-127000000D02*
X134620000Y-50800000D01*
X76200000Y-134620000D02*
G75*
G02*
X68580000Y-127000000I0J7620000D01*
G01*
X127000000Y-43180000D02*
G75*
G02*
X134620000Y-50800000I0J-7620000D01*
G01*
X68580000Y-50800000D02*
G75*
G02*
X76200000Y-43180000I7620000J0D01*
G01*
X134620000Y-127000000D02*
G75*
G02*
X127000000Y-134620000I-7620000J0D01*
G01*
M02*
